<?xml version="1.0" standalone="no"?>
<!DOCTYPE svg PUBLIC "-//W3C//DTD SVG 1.1//EN" "http://www.w3.org/Graphics/SVG/1.1/DTD/svg11.dtd" >
<svg>
<metadata>
Created by FontForge 20090622 at Wed Mar 18 11:02:28 2020
 By deploy user
AsemKandis &#194;&#169; (lemoncraft). 2018. All Rights Reserved
</metadata>
<defs>
<font id="AsemKandis" horiz-adv-x="1014" >
  <font-face 
    font-family="Asem Kandis"
    font-weight="400"
    font-stretch="normal"
    units-per-em="2048"
    panose-1="2 0 5 0 0 0 0 0 0 0"
    ascent="1638"
    descent="-410"
    x-height="383"
    cap-height="1502.5"
    bbox="-803.72 -505.077 2139.56 1716"
    underline-thickness="150"
    underline-position="-142"
    unicode-range="U+001D-U+F002"
  />
<missing-glyph horiz-adv-x="1024" 
d="M100 0v1434h824v-1434h-824zM150 50h724v1334h-724v-1334zM325 1148q31 28 58 43q53 30 112 30q92 0 148 -47.5t56 -127.5q0 -49 -23 -98.5t-87 -129.5q-63 -80 -99 -132t-36 -99q0 -38 24 -133h-32q-35 97 -35 148q0 76 81.5 218t81.5 217q0 57 -33 90t-91 33
q-38 0 -69 -17q-26 -15 -56 -40v45zM389 334l57 58q11 10 20 10q10 0 22 -11l56 -60q9 -11 9 -20q0 -11 -10 -22l-56 -62q-14 -14 -21 -14q-11 0 -20 10l-61 71q-7 9 -7 18q0 10 11 22z" />
    <glyph glyph-name=".notdef" horiz-adv-x="1024" 
d="M100 0v1434h824v-1434h-824zM150 50h724v1334h-724v-1334zM325 1148q31 28 58 43q53 30 112 30q92 0 148 -47.5t56 -127.5q0 -49 -23 -98.5t-87 -129.5q-63 -80 -99 -132t-36 -99q0 -38 24 -133h-32q-35 97 -35 148q0 76 81.5 218t81.5 217q0 57 -33 90t-91 33
q-38 0 -69 -17q-26 -15 -56 -40v45zM389 334l57 58q11 10 20 10q10 0 22 -11l56 -60q9 -11 9 -20q0 -11 -10 -22l-56 -62q-14 -14 -21 -14q-11 0 -20 10l-61 71q-7 9 -7 18q0 10 11 22z" />
    <glyph glyph-name=".null" horiz-adv-x="0" 
 />
    <glyph glyph-name=".null" horiz-adv-x="0" 
 />
    <glyph glyph-name="nonmarkingreturn" horiz-adv-x="508" 
 />
    <glyph glyph-name="space" unicode=" " horiz-adv-x="508" 
 />
    <glyph glyph-name="space" unicode="&#xa0;" horiz-adv-x="508" 
 />
    <glyph glyph-name="exclam" unicode="!" horiz-adv-x="672" 
 />
    <glyph glyph-name="quotedbl" unicode="&#x22;" horiz-adv-x="672" 
d="M197 1108h-30l-62 359q-4 23 -4 33q0 37 20.5 57t59.5 20t60.5 -19.5t21.5 -56.5q0 -8 -4 -34zM509 1108h-30l-62 359q-4 23 -4 33q0 37 20.5 57t59.5 20t60.5 -19.5t21.5 -56.5q0 -8 -4 -34z" />
    <glyph glyph-name="numbersign" unicode="#" horiz-adv-x="831" 
d="M731 665v0q27 0 43 -17t12.5 -35t-34.5 -21q-120 -7 -238 -26l-41 -74q103 18 206 33q28 3 44 -13t12 -35t-34 -25q-136 -21 -272 -45q-51 -101 -95 -206q-11 -22 -36 -24t-44 11t-11 38q34 81 72 161l-132 -26l-37 -66l-24 -42q-13 -20 -39.5 -22t-44.5 11t-7 36l33 58
l-30 -6l-72 -16q-28 -4 -43.5 11t-12 34.5t33.5 28.5l173 37q10 17 19 34q10 17 19 34l-82 -20l-93 -22q-20 -3 -37 7t-21 26.5t14 31.5q68 49 148 69q19 5 32 -1t19 -18l71 16l120 214q13 20 39 22t44.5 -11t7.5 -36l-42 -74l-50 -89q63 13 126 24q58 98 124 191
q15 19 40 17t40 -18.5t1 -40.5q-46 -64 -88 -131q83 11 167 15zM231 448v0l127 24l39 74l-125 -26z" />
    <glyph glyph-name="dollar" unicode="$" horiz-adv-x="862" 
d="M765 842v0q32 14 -10 10q-18 5 -40.5 2.5t-44.5 -6.5q-10 -2 -18 -3q-28 -5 -56 -11l-158 -230q64 -22 127 -66.5t80.5 -107.5t-54.5 -143q-66 -65 -158 -101t-171 -53q-61 -16 -130 -27l-76 -131q-15 -23 -41 -29.5t-43.5 2.5t-5.5 32l70 121q-33 1 -61 9
q-76 25 -61 72.5t79.5 103t139 103t118.5 70.5l63 100q-7 1 -14 3q-18 4 -34 8q-10 3 -24 5q-30 6 -65 16t-56.5 30t-10.5 54q19 45 78.5 78t108.5 52q8 3 14 5q114 48 229 79l97 127q18 20 43 22.5t39 -10.5t-3 -36l-59 -77q33 6 77 11t82.5 -1.5t52.5 -33.5
q12 -29 -10 -57.5t-57.5 -52t-63.5 -39.5q-1 -1 -2 -1q-25 -13 -45.5 -6t-23 24.5t25.5 35.5q38 20 72 47zM45 174v0q10 -7 31 -4l99 166q-40 -25 -78 -53q-6 -4 -12 -9q-31 -20 -51 -45t11 -55zM544 402v0q-5 54 -48 86t-102 49l-216 -352q68 10 154 35t149.5 69.5
t62.5 112.5zM357 626v0l119 174q-24 -8 -48 -17l-27 -8q-45 -14 -99.5 -35.5t-71.5 -45.5q-9 -19 11 -32.5t53 -22t63 -13.5z" />
    <glyph glyph-name="percent" unicode="%" horiz-adv-x="803" 
d="M438 693v0q-35 -44 -89.5 -63t-96.5 -7q-42 13 -50 52.5t32 84.5q39 41 91 61t87 -5q7 -6 9 -13q29 -15 37 -43t-20 -67zM303 725v0q-8 -11 -8.5 -21t9.5 -14q12 -3 26 4t24 18.5t10 21t-17 11.5q-8 1 -15 4q-1 -1 -2 -1q-2 -1 -4 -3q-13 -8 -23 -20zM830 1000v0
q23 17 46.5 14.5t32 -18t-15.5 -36.5q-461 -385 -768 -871q-16 -21 -40 -24t-38.5 10t-0.5 38q314 495 784 887zM468 382v0q16 -4 26 -16q12 -15 9.5 -37t-11.5 -44q-21 -47 -62 -79t-90 -30q-51 3 -59 48q0 42 34 83q15 20 35 40.5t42 33.5q21 11 42 11.5t34 -10.5z
M394 274v0q6 11 10 22q-7 -8 -13 -17q-4 -6 -8 -14q-1 -4 -3 -7q8 6 14 16z" />
    <glyph glyph-name="ampersand" unicode="&#x26;" horiz-adv-x="1142" 
d="M1029 629v0q27 -5 35.5 -23t-1.5 -34t-38 -13q-9 1 -19 2q-4 1 -8 1q39 -50 13.5 -110.5t-69.5 -104.5q-154 -142 -350 -219q-183 -87 -383 -109q-169 -17 -289 99q-59 75 -37.5 158.5t75.5 153.5q121 147 285 247q90 65 187 107q-52 19 -69 60q-10 33 10.5 59t53 43.5
t58.5 26.5q120 42 239 -2q26 -11 48 -30.5t24 -42.5t-31 -43q-20 -10 -43.5 -2t-32 24t14.5 31q-7 -3 -22.5 -0.5t-34.5 6.5q-28 7 -46 8q-26 0 -55.5 -5t-49.5 -21q-31 -30 -17.5 -41t46.5 -18l12 -2l92 -24q25 -7 29 -24.5t-8.5 -31.5t-35.5 -13q-86 7 -159.5 -29
t-141.5 -84q-4 -3 -7 -5q-104 -67 -196 -150q-51 -47 -97 -113.5t-42 -138.5q15 -90 98 -115.5t163 -14.5q281 48 520 206q2 2 5 4q51 29 108 77t65 108q0 43 -49 59.5t-114 17t-114 -5.5q-4 -1 -7 -1l-26 -4q-26 -3 -41 11.5t-11 32.5t32 25q38 7 82 11q174 19 349 -4z" />
    <glyph glyph-name="quotesingle" unicode="'" horiz-adv-x="346" 
d="M197 1108h-30l-62 359q-4 23 -4 33q0 37 20.5 57t59.5 20t60.5 -19.5t21.5 -56.5q0 -8 -4 -34z" />
    <glyph glyph-name="parenleft" unicode="(" horiz-adv-x="758" 
d="M645 1124v0q26 0 48 -15.5t28 -38.5t-16 -45q-16 -14 -38.5 -12t-38.5 14l-27 -32l-36 -48q-44 -63 -81 -132l-59 -110l-68 -126q-89 -168 -227 -291q0 -7 -2 -14q-29 -95 -37 -194q-4 -23 -26.5 -30t-44 2t-21.5 33q6 67 20 131q-20 -3 -38.5 6t-23.5 23.5t16 29.5
q132 80 216 202t151 257q46 89 96 174q8 12 16 27q32 59 81 120.5t112 68.5z" />
    <glyph glyph-name="parenright" unicode=")" horiz-adv-x="634" 
d="M353 295v0q26 -4 37 -23.5t-13 -39.5q-125 -94 -197 -231q-13 -21 -37.5 -23t-41.5 10.5t-7 35.5q64 122 165 212q-84 17 -137.5 68.5t-29.5 149.5q38 107 111 208l48 75l67 112l27 45l7 10q16 23 37.5 62t18.5 64.5t-60 7.5q-25 -6 -44 6t-21 30t27 29q45 16 99.5 18.5
t87.5 -34.5q28 -40 8.5 -86.5t-48.5 -87.5q-9 -15 -17 -27l-66 -110l-131 -220l-13 -20q-28 -41 -46 -87.5t4 -90.5q24 -39 71 -50.5t91 -12.5h3z" />
    <glyph glyph-name="asterisk" unicode="*" horiz-adv-x="366" 
 />
    <glyph glyph-name="plus" unicode="+" 
d="M437 647h-350v140h350v369l1 1h139v-370h349l1 -1v-139h-350v-370h-140v370z" />
    <glyph glyph-name="comma" unicode="," horiz-adv-x="464" 
d="M215 346v0q10 20 32 22t39 -10t10 -34q-20 -51 -57 -92q-11 -12 -27.5 -14t-30.5 5q-13 7 -18 20.5t5 25.5q31 34 47 77z" />
    <glyph glyph-name="hyphen" unicode="-" horiz-adv-x="670" 
d="M156 409q-40 0 -40 28v83q0 29 41 29h356q41 0 41 -29v-83q0 -28 -40 -28h-358z" />
    <glyph glyph-name="hyphen" unicode="&#xad;" horiz-adv-x="670" 
d="M156 409q-40 0 -40 28v83q0 29 41 29h356q41 0 41 -29v-83q0 -28 -40 -28h-358z" />
    <glyph glyph-name="period" unicode="." horiz-adv-x="289" 
d="M181 318v0q26 -27 6 -58q-9 -14 -24 -22.5t-32 -8.5q-12 0 -23.5 7t-15.5 19q-4 15 2 29q10 24 34 38q17 9 34 5q12 -2 19 -9z" />
    <glyph glyph-name="slash" unicode="/" horiz-adv-x="569" 
d="M639 920v0q14 12 33.5 10t30 -14t-2.5 -28q-304 -341 -590 -697q-12 -13 -31.5 -11t-30.5 14t1 29q286 356 590 697z" />
    <glyph glyph-name="zero" unicode="0" horiz-adv-x="745" 
d="M627 931v0q86 -5 116.5 -67.5t9.5 -139.5q-134 -400 -492 -628q-70 -47 -153.5 -77t-165.5 9q-80 49 -73 126t42 151q173 401 498 694q19 14 41 8t31.5 -24t-10.5 -38q-222 -202 -373 -462q-67 -117 -116 -243q-14 -35 -17 -74t16 -65t72 -21q65 14 121 55q6 4 13 8
q237 148 380 388q33 53 65.5 118t39.5 128q1 38 -27 55t-66 13q-16 -2 -37.5 -16.5l-38.5 -26.5q-3 -2 -5 -4q-62 -47 -108 -109q-15 -17 -39 -15t-38.5 17.5t0.5 38.5q54 72 137 135t177 66z" />
    <glyph glyph-name="one" unicode="1" horiz-adv-x="436" 
d="M534 1136v0q41 0 56 -31q8 -25 -7 -52.5t-34 -50.5q-9 -11 -15 -20l-86 -130q-1 -2 -2 -3q-277 -399 -500 -839q-12 -20 -38 -20q-25 0 -39 17q-2 4 -3 10.5t3 15.5q189 376 386 666l66 104q69 113 146 220q-5 -5 -11 -9q-23 -17 -45 -38q-63 -62 -113 -146
q-12 -19 -38 -19t-39 18q-3 4 -3.5 10t4.5 14q41 73 115.5 160.5t169.5 118.5q13 4 27 4z" />
    <glyph glyph-name="two" unicode="2" horiz-adv-x="724" 
d="M612 847v0q-68 -134 -158 -255l-2 -2q-180 -264 -388 -506q194 0 387 -19q24 -3 31 -18.5t-1.5 -29t-32.5 -12.5q-230 23 -461 18q-11 0 -21.5 7.5t-14.5 18t5 21.5q178 195 329 410l51 70q129 162 216 347q13 30 22 61q10 99 -46 46q-14 -5 -28.5 -16.5t-27.5 -23.5
l-17 -15q-58 -47 -109 -101q12 -10 5 -28q-109 -254 -298 -457q-12 -11 -30.5 -11.5t-31.5 9t-7 29.5q97 289 311 507q7 7 16 17q38 41 96 91.5t120 74t111 -17.5q36 -39 20.5 -97.5t-40.5 -104.5q-3 -7 -6 -13z" />
    <glyph glyph-name="three" unicode="3" horiz-adv-x="962" 
d="M620 842v0q127 -28 206 -125.5t62 -238.5q-34 -181 -185.5 -302t-319.5 -171q-143 -47 -333 -38.5t-278 153.5q-50 114 14 220.5t173.5 189.5t195.5 128q21 10 44.5 1.5t32 -25t-14.5 -30.5q-113 -57 -235.5 -158t-137.5 -235q2 -108 94 -143.5t207 -28.5t186 28
q290 77 438 331q66 158 -22 279.5t-261 92.5q-22 -4 -38 8.5t-16.5 30t22.5 28.5q119 54 210 145q-54 16 -114 -11q-23 -9 -43 2.5t-23 30t23 31.5q128 55 251 -11q14 -8 19.5 -22.5t-5.5 -27.5q-69 -77 -152 -132z" />
    <glyph glyph-name="four" unicode="4" horiz-adv-x="833" 
d="M962 1050v0q-263 -359 -500 -742q-2 -4 0 -7q2 -4 6 -4v0l128 6h3q19 0 31 -11.5t13 -25.5q1 -10 -7 -19.5t-28 -11.5q-86 -5 -172 -9q-24 -1 -37 -21q-106 -174 -197 -338q-14 -21 -41 -21q-15 0 -27 6q-24 15 -11 40l186 320q2 4 0 7q-2 4 -6 4q-32 -1 -60 -1
q-21 0 -46 -1v2v0v0l-1 -2q-29 -2 -58 -2q-35 0 -73.5 7.5t-65.5 36.5q-8 8 -9.5 20t8.5 23q399 404 857 739q5 3 10 5q6 8 11 16l2 2v1q8 10 15 20q13 16 33 16h6q26 -4 35 -23q3 -6 2.5 -14t-7.5 -18zM724 851v0q-333 -261 -631 -558q27 -9 77 -9q49 0 96 5q33 3 55 4h14
q23 1 36 21q168 273 353 537z" />
    <glyph glyph-name="five" unicode="5" horiz-adv-x="809" 
d="M754 1005v0q29 -2 36 -19.5t-4.5 -34.5t-40.5 -18q-183 3 -367 -12l-48 -79q76 -8 136 -68.5t79 -136.5q32 -162 -47.5 -308t-214.5 -245q-36 -29 -136.5 -82t-193.5 -69t-109 67q0 52 53.5 89t103.5 59q12 6 21 10q160 80 333 105q66 82 94 182q27 97 2 191
q-11 39 -40.5 78t-68.5 50.5t-79 -33.5q-14 -15 -37.5 -14.5t-38.5 13t-4 33.5l45 75l44 74q-24 1 -36 17t-6.5 32.5t33.5 20.5l35 4q10 0 20 1l18 31q13 19 37.5 21t41.5 -10t7 -33q166 11 332 9zM213 129v0q29 21 56 44q-157 -33 -284 -122l-8 -6l-21 -16t-13 -13.5
t6.5 -6t37.5 6.5q35 10 69 25q84 34 157 88z" />
    <glyph glyph-name="six" unicode="6" horiz-adv-x="817" 
d="M509 442v0q71 0 121 -46q42 -38 41 -88q-5 -75 -87 -146q-157 -125 -368 -143q-19 -1 -36 -1q-86 0 -148 32l-6 -7l-26 -26t-35 -13q-16 0 -30 7t-19 18q-7 16 7 31l43 44q-16 20 -27 43q-64 130 14 342q131 337 516 559l4 2q32 19 78.5 40t90.5 21q50 0 76 -38
q33 -62 -20.5 -131t-117.5 -112q-11 -8 -26 -8q-17 0 -31.5 9t-19.5 22q-2 6 0 15t15 19q14 10 40.5 33t48 49.5t21.5 45.5q-1 11 -12 16q-2 1 -6 1q-19 0 -55.5 -22.5t-63.5 -41.5q-12 -8 -19 -12q-128 -82 -223 -177q-68 -63 -158 -203.5t-88 -317.5q4 -54 27 -93
q131 121 271 206q119 71 208 71zM579 307v0q0 60 -61 60q-38 0 -80 -16.5t-64 -30.5q-57 -32 -129 -85q-75 -55 -153 -127q9 -4 18 -7q30 -10 70 -10q61 0 112 16q41 9 108.5 35.5t122 68.5t56.5 96z" />
    <glyph glyph-name="seven" unicode="7" horiz-adv-x="650" 
d="M844 1044v0q14 -10 12.5 -23t-12 -23t-23.5 -13l-101 -14l-100 -14q-40 -35 -72.5 -74t-50.5 -64q-86 -116 -162 -239q-3 -4 -5 -8t-4 -7q4 0 8 1l26 4q26 3 41.5 -12t11.5 -33.5t-33 -24.5q-51 -9 -102 -14q-140 -233 -253 -480q-11 -21 -35.5 -23t-42.5 10.5t-9 35.5
q106 231 234 450h-9q-14 -1 -28 -1q-28 2 -37 19t2 34t39 19q39 0 77 3q68 111 142 219q49 76 127 165l-199 -28l-198 -29q-16 -2 -33 4.5t-23 23.5q-9 55 43.5 86t111.5 49q25 8 42 16q24 9 44 -2.5t23 -30t-24 -31.5q-4 -2 -17 -8q-16 -6 -38 -15l263 38l101 14
q123 101 263 20z" />
    <glyph glyph-name="eight" unicode="8" horiz-adv-x="818" 
d="M734 495v0q27 -81 -18 -147t-104 -115q-135 -121 -296 -203l-8 -4q-69 -38 -152 -66t-161 -2q-126 61 -81 197q107 287 303 543l44 64q-18 21 -30 46q-32 78 3.5 147.5t97.5 118.5q38 32 85 31.5t58 -58.5q3 -108 -69 -220q-1 -6 -5 -12l-21 -33l-10 -14q45 -34 94 -60
l35 -19q21 -13 45 -26q58 -31 112 -70.5t78 -97.5zM322 935v0q-22 -45 -10 -89q16 28 29 58q2 4 4 10q8 17 19 45t17 54q-20 -20 -37 -43.5t-22 -34.5zM647 406v0q18 68 -28.5 111.5t-103.5 73.5q-14 7 -26 15l-52 29q-57 30 -110 67l-175 -271q-65 -104 -117 -215
q-2 -6 -5 -12q-17 -35 -29 -72q-15 -66 24 -92.5t97 -10.5q210 69 378 215q9 7 18 15q38 29 75.5 66t53.5 81z" />
    <glyph glyph-name="nine" unicode="9" horiz-adv-x="855" 
d="M901 1032v0q23 4 40.5 -9t13.5 -38q-22 -81 -80.5 -148t-123.5 -124q-6 -5 -11 -10l-137 -212l-304 -480q-14 -19 -37.5 -17t-38 17.5t-1.5 39.5l293 463l-105 -75l-26 -18q-66 -46 -142.5 -87.5t-154.5 -47.5q-60 -1 -88 35t-16 94q20 79 74 154.5t108 135.5
q119 135 266 239q42 32 141 86.5t192.5 69.5t118.5 -72q8 3 18 4zM293 457v0q110 70 212 151q83 65 159 136l31 48l62 96l19 31q17 29 36 55q-15 9 -17 28q-3 28 -38 23t-82 -27.5t-86 -45t-48 -29.5q-105 -69 -198 -155q-85 -78 -155 -171q-9 -12 -21 -26
q-32 -39 -62.5 -86.5t-31.5 -88.5q4 -36 47 -25.5t92.5 38.5t74.5 45z" />
    <glyph glyph-name="colon" unicode=":" horiz-adv-x="279" 
d="M89 718v0q25 -27 5 -59q-9 -13 -24 -22t-31 -9q-13 1 -24 7.5t-16 18.5q-3 15 3 29q10 25 33 38q17 10 35 6q11 -2 19 -9zM89 442v0q25 -27 5 -59q-9 -13 -24 -22t-31 -9q-13 0 -24 7t-16 19q-3 15 3 29q10 25 33 38q17 9 35 6q11 -2 19 -9z" />
    <glyph glyph-name="semicolon" unicode=";" horiz-adv-x="250" 
d="M61 447v0q9 19 31.5 21t39.5 -9.5t10 -33.5q-20 -52 -57 -93q-11 -12 -27.5 -14t-31.5 5q-12 8 -17 21t5 26q30 34 47 77zM126 718v0q25 -27 5 -59q-9 -13 -24 -22t-31 -9q-13 1 -24.5 7.5t-15.5 18.5q-3 15 3 29q10 25 33 38q17 10 35 6q11 -2 19 -9z" />
    <glyph glyph-name="semicolon" unicode="&#x37e;" horiz-adv-x="250" 
d="M61 447v0q9 19 31.5 21t39.5 -9.5t10 -33.5q-20 -52 -57 -93q-11 -12 -27.5 -14t-31.5 5q-12 8 -17 21t5 26q30 34 47 77zM126 718v0q25 -27 5 -59q-9 -13 -24 -22t-31 -9q-13 1 -24.5 7.5t-15.5 18.5q-3 15 3 29q10 25 33 38q17 10 35 6q11 -2 19 -9z" />
    <glyph glyph-name="less" unicode="&#x3c;" horiz-adv-x="602" 
 />
    <glyph glyph-name="equal" unicode="=" 
d="M87 631h840v-140h-840v140zM87 943h840v-140h-840v140z" />
    <glyph glyph-name="greater" unicode="&#x3e;" 
d="M87 1241l840 -484v-83l-840 -481v167l625 355l-625 359v167z" />
    <glyph glyph-name="question" unicode="?" horiz-adv-x="695" 
d="M706 1118v0q52 -15 90.5 -48.5t23.5 -92.5q-21 -58 -74.5 -107t-107.5 -88q-18 -13 -33 -25l-434 -321l-199 -144q-18 -11 -38 -4.5t-27.5 21.5t11.5 30l215 154q264 177 503 381l18 15q20 16 41 35.5t29 37.5q16 41 6 62.5t-33.5 30.5t-49.5 13q-120 16 -230 -34
q-87 -38 -161 -99q-49 -38 -81 -90q-3 -6 -8.5 -25.5t-9.5 -42t-1 -37.5t18 -11q21 6 38.5 -5t20 -26.5t-21.5 -24.5q-52 -16 -91 7.5t-46 78.5q-4 63 30.5 116.5t79.5 91.5q106 94 244.5 141.5t277.5 9.5zM-187 134v0q-30 31 -9 64t62 46.5t71 -12.5q12 -13 10 -24t-12 -19
q4 -35 -25 -59q-22 -16 -49.5 -14.5t-47.5 18.5z" />
    <glyph glyph-name="at" unicode="@" horiz-adv-x="1098" 
d="M609 522v0q18 -6 24 -17.5t2 -22.5l2 -2v-1q11 -11 5 -29v0v-1q-1 -5 -1 -11q-3 -23 -3.5 -47.5t7.5 -43.5q-9 -35 20 -21l27 34q60 76 109 160q93 151 138 323q16 93 -48.5 96t-147.5 -32.5t-121 -60.5q-142 -88 -252 -215q-118 -129 -215 -319.5t-42 -368.5
q62 -135 206.5 -79.5t287 177.5t200.5 187q16 15 39.5 12.5t36.5 -17t-3 -33.5q-176 -194 -400 -327q-86 -53 -186.5 -74.5t-191.5 38.5q-76 60 -87.5 156.5t8.5 184.5q53 211 184 386q222 334 602 449q71 18 139 -1t83 -99q7 -89 -35 -186.5t-88 -176.5q-6 -9 -10 -17
q-55 -100 -124 -190l-7 -9q-18 -26 -40.5 -48.5t-52.5 -32.5q-53 -15 -79.5 10.5t-34.5 71.5q-9 6 -13 17q-3 8 -4 16l-29 -26l-19 -17q-30 -33 -68 -52q-39 -17 -79.5 -4t-47.5 58q-3 65 50.5 118t127.5 78.5t131 8.5zM469 396v0l34 31l34 30q-51 -13 -99.5 -48t-46.5 -73
q-7 -20 9 -1l26 22l29 26q7 7 14 13z" />
    <glyph glyph-name="A" unicode="A" horiz-adv-x="513" 
d="M1473 473v0q8 -15 -2 -32q-16 -25 -46 -25h-1q-617 7 -1064 -23q-50 -5 -76 -50l-131.5 -252.5l-119.5 -247.5l-9 -17q-17 -24 -43 -24q-13 0 -24 5t-17 16t1 28l123.5 252.5l131.5 253.5q5 10 0 17t-14 7q-215 -19 -422 -47q-40 -18 -76 -24q-8 -1 -18 1t-18 7
q-208 -32 -403 -74q-21 -4 -33 4t-15 21q-3 14 6.5 27.5t32.5 18.5q208 45 431 78q111 126 265 176q11 4 28 2l83 70l289 260l692 635q17 15 39.5 14t35.5 -13q3 -3 5.5 -9t1 -14t-11.5 -19q-388 -390 -730 -1004q-5 -10 0 -18q4 -6 13 -6q443 29 1063 22q24 -1 33 -16z
M275 503v0q179 321 359 569l-348 -319q-133 -122 -296 -256l-28 -23l-61 -50q147 18 301 30q47 6 73 49z" />
    <glyph glyph-name="B" unicode="B" horiz-adv-x="1219" 
d="M1235 1012v0q18 0 34.5 -8.5t21 -23t-14.5 -30.5q-170 -115 -372 -170q-46 -15 -90 -31l-102 -36l-204 -71q117 0 233 -14q194 -12 359 -111q107 -80 78.5 -157t-119.5 -136.5t-172 -87.5q-401 -141 -826 -160q-196 -13 -388 30q-60 12 -126.5 40t-94.5 88
q-21 64 22 115.5t94 87.5l11 9q148 116 323 182q24 8 43.5 -4t22.5 -30t-24 -29q-165 -63 -304 -172l-2 -2q-29 -21 -59 -51t-37 -62.5t32 -61.5q37 -23 84 -35t90 -19l12 -2q372 -46 738 44q185 36 362 100q64 23 136 68.5t89 102t-82 114.5q-160 71 -336 76
q-205 17 -410 -11q-16 -1 -30 7l-157 -194l-56 -69q-15 -17 -39.5 -14.5t-38 17.5t1.5 37l287 353q4 6 2.5 12.5t-7 10t-12.5 0.5q-387 -143 -738 -367q-20 -12 -43 -4.5t-31.5 24.5t13.5 33q439 281 933 438q4 4 8 9l63 71q9 26 33.5 29t44 -10.5t10.5 -34.5h1l-0.5 -1
t-1 -2.5t0 -3.5t1.5 -3.5t4 -2t7.5 0t12.5 2.5l-1 -1q348 93 710 121zM739 801v0l103 34q124 38 242 90q-347 -41 -679 -144l-65 -81l-45 -55l174 61z" />
    <glyph glyph-name="C" unicode="C" horiz-adv-x="1213" 
d="M1358 167v0q24 6 44 -6t23 -29.5t-24 -27.5q-340 -112 -690 -186l-102 -23q-271 -78 -537 -57q-112 17 -180 86.5t-36 187.5q41 119 131.5 211.5t191.5 164.5q219 162 470 268q122 55 260.5 97t274.5 27q37 -4 69 -22.5t41 -56.5q7 -52 -28.5 -98t-71.5 -77
q-204 -174 -455 -272q-1 0 -2 -1q-37 -16 -107 -38t-126 -13.5t-50 82.5q9 52 51 105.5t79 89.5q82 84 185 139q14 7 34.5 5.5t33.5 -12t6 -31.5q-29 -74 -93 -119q-13 -9 -32 -8t-33 11q-23 -21 -44 -45q-45 -47 -77 -104q-15 -21 -20 -46q41 9 80 21q247 85 454 245
q58 40 101 96q27 41 11 58.5t-51 20t-64 -1.5q-122 -14 -237 -57q-248 -87 -470 -227q-218 -125 -370 -322q-39 -54 -59 -124t32 -124q61 -50 143.5 -52t155.5 10q556 77 1088 255z" />
    <glyph glyph-name="D" unicode="D" horiz-adv-x="1388" 
d="M1479 900v0q171 -126 106.5 -257t-225 -235.5t-277.5 -150.5q-561 -227 -1163 -170q-28 4 -36.5 21.5t1.5 33.5t39 15q544 -52 1057 139q218 75 399 215q48 38 88.5 90t41.5 115q-5 65 -56 106.5t-107 64.5q-337 130 -717 89q-87 -8 -138 -78q-198 -283 -353 -593
q-12 -19 -36.5 -21t-41.5 10t-8 35q160 318 364 609q3 6 0 11.5t-10 4.5q-419 -48 -782 -261q-58 -34 -135.5 -97.5t-104 -135.5t68.5 -131q221 -114 470 -87q26 2 41 -14t11.5 -33.5t-32.5 -21.5q-306 -38 -570 117q-110 87 -69 193t137 180q444 318 993 366q15 2 31 3
q20 3 32 18v1q17 19 42.5 15t36.5 -24q208 14 414 -2q263 -9 488 -140z" />
    <glyph glyph-name="E" unicode="E" horiz-adv-x="910" 
d="M976 1203v0q34 0 84 -6t85.5 -29.5t25.5 -74.5q-9 -34 -36 -65t-55 -56q-11 -10 -20 -19q-71 -68 -152 -125q-20 -12 -42.5 -5t-31.5 24t13 34q73 50 137 112q28 27 54 57l12 12q11 10 13 18.5t-10 26.5q-24 32 -82.5 33t-123 -12.5t-106.5 -25.5q-8 -2 -13 -3
q-276 -73 -510 -236q-124 -86 -230 -194q-3 -2 -5 -5q-49 -47 -91.5 -104t-49.5 -126q0 -99 75 -125.5t159 -28.5q10 0 19 -1q99 -7 198 -15q50 -3 100 -7q18 -2 30.5 -15.5t12 -28.5t-23.5 -23q-123 -32 -232 -98q-25 -16 -49 -33q-38 -40 20 -17q39 -1 84 13l36 9
q267 49 530 115q26 5 40.5 -9.5t11 -33t-31.5 -26.5q-212 -53 -426 -96q-103 -20 -207 -38q-9 -2 -19 -4q-26 -5 -52.5 -7.5t-50.5 6.5q-54 25 -44 67t48 74q62 50 138 84q-136 4 -267 27q-162 26 -188 184q-5 87 42 159.5t107 131.5q137 143 304 251q350 239 770 254z" />
    <glyph glyph-name="F" unicode="F" horiz-adv-x="478" 
d="M1699 1133v0q28 -2 36.5 -19t-1.5 -34t-39 -17q-546 9 -1091 -23q-44 -4 -69 -41l-179 -281q-4 -7 -0.5 -13t10.5 -7q45 -1 107 -0.5t89 1.5q28 0 36.5 -16.5t-2 -34t-38.5 -19.5q-32 -2 -96 -2t-118 3q-41 1 -64 -33q-3 -6 -7 -12q-5 -9 -11 -18l-9 -15q2 -8 3 -13
q2 -9 3 -10q9 -61 4 -122q-15 -136 -79 -258q-136 -256 -368 -430q-22 -15 -46.5 -6t-28.5 35q-2 108 60 199q3 6 7 12l118 211l234 394q-7 17 -16 35q-22 38 -22 75q8 50 53 58t86 -4l167 263q7 13 0.5 24.5t-21.5 11.5q-232 -17 -464 -42q-26 -2 -41 14t-11.5 33.5
t32.5 21.5q268 29 537 47q40 4 63 37l169 261q13 18 36.5 16t38 -17.5t1.5 -38.5l-142 -218q-6 -10 -0.5 -19t16.5 -9q528 29 1057 20zM167 370v0q4 25 6 51l-152 -259l-103 -181l-19 -35q-28 -46 -50 -95q247 213 318 519z" />
    <glyph glyph-name="G" unicode="G" horiz-adv-x="1046" 
d="M1022 1059v0q52 6 126.5 2t114 -36.5t-14.5 -112.5q-75 -87 -186 -129l-29 -15q-156 -75 -317 -136l-61 -24q-121 -50 -254 -89.5t-253 -28.5q-51 5 -97 33q-68 -70 -113 -152q-37 -71 -22 -127t95 -67q98 -6 197 18q201 49 393 137q23 9 46 19l417 175q21 8 39.5 0
t23 -24.5t-15.5 -33.5q-320 -237 -545 -560q-6 -9 -2 -17t14 -8q144 11 287 17q29 -1 35.5 -17.5t-5.5 -33.5t-40 -20q-155 -6 -311 -18q-45 -5 -70 -45q-30 -50 -58 -102q-12 -20 -36.5 -22t-41 10t-5.5 35l46 84q5 9 0.5 16t-14.5 7q-92 -9 -184 -21q-21 -2 -36 10.5
t-15 29t26 26.5q21 7 33.5 10t33.5 4q11 1 20 -2q78 9 157 17q41 5 66 40q167 247 388 448q-238 -107 -481 -189q-115 -42 -268 -64.5t-247 58.5q-74 89 -18.5 201.5t132.5 190.5l25 26l6 6q-10 42 10 82.5t51 75.5q177 209 435 284q24 6 42.5 -6.5t20 -30t-26.5 -26.5
q-222 -64 -381 -239q-12 -14 -25 -31q140 104 296 178q286 151 597 187zM1173 954v0q1 3 2 5q8 18 4.5 23t-26.5 9h-2q-48 7 -100 0q-8 0 -15 -1q-437 -52 -810 -319q-59 -41 -116 -91q4 -4 10 -7q24 -14 55.5 -14.5t60.5 3.5q121 19 240 62q7 2 13 4q213 69 417 161
q21 9 42 19q95 37 178 93q31 20 47 53z" />
    <glyph glyph-name="H" unicode="H" horiz-adv-x="674" 
d="M1264 918v0q29 0 37 -16.5t-2 -34t-38 -20.5q-247 -12 -493 -42q-49 -7 -74 -50q-146 -262 -266 -537q-10 -20 -34 -22t-42 10t-10 35q114 261 251 510q5 11 -1.5 20t-18.5 8q-94 -14 -188 -31q-58 -12 -87 -62q-285 -515 -495 -1067q-10 -20 -33.5 -22.5t-42 10
t-10.5 36.5q204 537 480 1039q5 11 -1 19.5t-18 6.5q-164 -34 -327 -76q-26 -6 -40.5 8.5t-11 33t31.5 27.5q187 48 375 86q55 12 84 60q249 432 550 833q15 17 38.5 14.5t37.5 -17.5t0 -37q-283 -377 -521 -784q-6 -12 1 -22t20 -8q96 16 191 29q47 8 72 48
q185 318 407 612q15 18 38.5 15.5t37.5 -17.5t0 -37q-206 -274 -381 -568q-5 -11 1 -20t18 -8q231 26 464 38z" />
    <glyph glyph-name="I" unicode="I" horiz-adv-x="399" 
d="M1020 1486v0q14 -8 18.5 -21.5t-4.5 -27.5q-92 -115 -198 -218q-72 -72 -139 -147q-156 -179 -291 -374l-30 -44q-7 -12 0 -23.5t21 -10.5l35 6q26 4 40.5 -10.5t11 -32.5t-31.5 -26q-55 -11 -110 -10q-35 -1 -55 -30q-175 -272 -298 -564q-3 -9 1 -17t14 -9q5 -1 11 -2
q15 -4 24.5 -17t4.5 -28q-8 -17 -24.5 -21t-32.5 -1q-74 13 -146 -6q-26 -6 -40.5 8.5t-11 33t31.5 27.5q17 4 33 7q30 6 43 34q124 296 302 574q5 10 1 20t-16 13q-85 14 -158 54.5t-71 126.5q13 98 93 187t156 152q7 6 13 12q190 163 414 274q109 56 222 102
q43 19 83.5 25.5t83.5 -16.5zM621 1112v0q67 75 139 146q82 81 157 168q-25 -8 -51.5 -20.5l-48.5 -23.5q-16 -9 -27 -14q-66 -30 -130 -63q-148 -77 -282 -176t-240 -227l-12 -14q-36 -39 -60.5 -84t-1.5 -92q22 -37 63.5 -54t86.5 -24q41 -5 65 28l33 50q143 209 309 400z
" />
    <glyph glyph-name="J" unicode="J" horiz-adv-x="281" 
d="M934 881v0q28 -4 37 -21.5t-1.5 -34t-38.5 -14.5q-88 8 -180 19q-131 17 -265 26q-41 1 -63 -34l-236 -398l-137 -231l-66 -118q-67 -134 -153 -249q-38 -46 -92.5 -57t-98.5 36q-20 26 -27 62.5t-10 72.5q-1 16 -3 31q-12 96 -12 192q-2 185 66 356q101 230 284.5 316
t405.5 87q38 2 58 35l45 79l43 76.5t21 37.5q-13 7 -17 21q-7 59 44 111t104 71q12 4 31 0.5t30.5 -14.5t2.5 -29l-45.5 -78.5l-67.5 -116.5l-100 -173q-4 -8 0 -15t13 -8q146 -9 286 -24q73 -8 142 -14zM28 324v0l202 341l101 170q4 9 -0.5 16t-13.5 7q-117 -4 -226 -34
q-209 -68 -308 -245.5t-104 -386.5q-3 -121 13 -240q1 -4 1 -14q1 -13 3 -29.5t4.5 -30t6.5 -17.5q18 -16 32 -9.5t25 24t19 33.5q4 8 8 14l158 268z" />
    <glyph glyph-name="K" unicode="K" horiz-adv-x="1086" 
d="M1566 27v0q23 -12 16 -28.5t-29 -26.5t-44 -2q-532 237 -1087 433q-10 4 -21.5 -0.5t-18.5 -14.5q-268 -412 -494 -844q-12 -21 -36 -23t-40 10t-5 36q225 430 492 840q8 13 4.5 25.5t-16.5 17.5l-90 31q-18 7 -24.5 25.5t16.5 33.5q45 26 92 21q17 -2 25 -11l44 12
q22 5 43 11q22 6 36 25l20 29q-34 -5 -68 12q-14 7 -15.5 21t8.5 27q126 150 299 239q18 9 38 6t29 -16t-6 -35l-186 -252q-4 -5 -1 -9.5t9 -3.5l76 20l91 24q36 9 72 20q161 51 323 61q31 -2 35 -26t-26 -40q-50 -24 -108.5 -41.5t-109.5 -8.5q-12 3 -19 12
q-53 -14 -105 -30q-51 -15 -100 -28l-95 -25l-94 -25q-22 -6 -35 -25v0q-8 -12 -5 -23.5t15 -15.5q558 -198 1095 -438z" />
    <glyph glyph-name="L" unicode="L" horiz-adv-x="432" 
d="M1288 81v0q28 -4 36.5 -21.5t-2 -33.5t-38.5 -16q-730 41 -1458 -33q-21 -9 -43 -3l-158 -14q-21 -1 -38 12.5t-18.5 29.5t24.5 24l177 51q22 8 33 28q235 436 529 835q-108 -97 -198 -211q13 -5 18.5 -15t-0.5 -24q-50 -99 -149 -149q-13 -6 -31 -1.5t-29.5 16
t-3.5 29.5q110 200 273.5 353.5t345.5 288.5q16 11 37.5 7t33.5 -18.5t-3 -34.5q-401 -490 -706 -1044q-14 -28 2 -56q8 -13 2 -25q681 64 1364 25z" />
    <glyph glyph-name="M" unicode="M" horiz-adv-x="825" 
d="M923 1111v0q15 16 36 15.5t34.5 -12.5t4.5 -34l-259 -590l-259 -588q-11 -21 -34 -23.5t-39.5 10t-7.5 35.5l205 465l204 465q-247 -305 -460 -633q-14 -19 -37 -22t-38 9t-6 36l408 913q-152 -169 -284 -352q-101 -139 -189 -285l-81 -141l-14 -22q-6 -9 -13 -21
l-43 -83q11 -13 3 -32q-7 -15 -18.5 -21.5t-26.5 -9.5q-13 -3 -27.5 2t-19.5 17q-2 7 -3 15q-9 12 0 30q1 3 3 6q1 3 3 6q22 64 65 128q183 357 348 721q-235 -362 -384 -757q-10 -22 -33 -29t-41 1.5t-14 31.5q33 144 89 284q6 13 17 19t25 5q200 423 500 798
q14 17 35 16.5t34 -13t6 -33.5l-228 -509q180 234 390 443q15 15 36.5 15t34.5 -11.5t4 -34.5l-162 -362l-162 -363q188 255 398 495z" />
    <glyph glyph-name="N" unicode="N" horiz-adv-x="709" 
d="M986 1120v0q-3 -59 -33 -112.5t-68 -103.5q-19 -25 -36 -50l-216 -332q-211 -334 -399 -679q-13 -20 -36.5 -22.5t-39.5 10t-5 35.5q171 313 361 618l194 303l101 149q9 14 20 29q30 38 52 80q-375 -194 -638 -524l-56 -97l-153 -265q-10 -16 -29 -20l-2 -3
q-12 -21 -35 -23.5t-39 10t-7 35.5q56 121 128 233q-25 -12 -48 -1t-15 41q34 87 74 171q5 16 8 32q5 19 22 26q195 374 520 661q15 12 37.5 13t36 -10t2.5 -33l-83 -144l-197 -340q234 208 518 337q11 4 25 3t25 -8t11 -19zM147 589v0q-17 -65 -48 -127q32 46 67 89
l292 507q-187 -217 -311 -469z" />
    <glyph glyph-name="O" unicode="O" horiz-adv-x="857" 
d="M1118 1264v0q46 -119 -19 -284q-104 -254 -305 -532q-158 -237 -398 -445q-29 -25 -116.5 -77.5t-186.5 -52.5q-63 0 -121 38q-91 76 -85.5 205t33.5 232l3 14q126 538 535 917q18 15 42.5 13t38.5 -17q8 -8 8 -20t-14 -25q-332 -304 -470 -723q-66 -201 -75 -359
q-5 -62 12.5 -119t77.5 -70q84 -13 207 68q179 134 307 306q138 168 252 357l13 22q113 170 175 361q5 17 9 53t-5 77t-42 72q-50 37 -112 15t-112 -54q-170 -101 -286 -259q-55 -77 -95 -165q-21 -45 -36 -92l-3 -9q-4 -13 -7 -25q-2 -17 3 -40l2 -18q10 6 23 8
q34 6 51 -12q10 -13 4 -31q-14 -38 -51 -55q-40 -16 -82 2q-42 20 -51 57.5t-0.5 77.5t18.5 68q95 277 324 467q35 30 105.5 79t155.5 78t164 2q78 -31 109 -105zM338 602v0v0v0v0z" />
    <glyph glyph-name="P" unicode="P" horiz-adv-x="746" 
d="M1582 1133v0q4 -130 -85.5 -237.5t-186.5 -183.5q-225 -181 -499 -276q-261 -92 -538 -116v0q-17 -3 -29 -10t-15 -10q-2 -4 -5 -7l-13 -19q61 14 119 35q23 7 43 -4.5t23 -29.5t-24 -29q-90 -33 -189 -49q-24 -5 -37 -26q-60 -102 -106 -210q-11 -20 -35 -22.5t-41.5 10
t-9.5 35.5q41 97 93 188q2 5 0 8.5t-7 3.5q-160 -2 -301 66q-266 163 -133 451q150 251 416 382q283 158 597 242q320 91 649 51q108 -14 203 -70t111 -173zM1017 609v0q91 48 243 170.5t220 259.5t-91 229q-103 48 -226.5 52t-234.5 -10q-248 -28 -482 -116
q-213 -72 -432.5 -197t-328.5 -332q-109 -261 147 -375q119 -41 245 -33q20 1 32 18l12 18q6 10 2 19.5t-15 12.5q-77 12 -124 55t-17 128q9 21 33 23.5t42 -10t11 -36.5q-19 -54 15.5 -76t92.5 -24q26 0 42 20q177 224 437 356q13 6 31 2t29.5 -16t3.5 -29
q-38 -72 -105 -118q-16 -11 -35 -7.5t-31 15.5q-130 -92 -232 -214q5 0 10 1q7 1 12 1q120 15 239 42q239 54 455 171z" />
    <glyph glyph-name="Q" unicode="Q" horiz-adv-x="954" 
d="M1200 1372v0q48 -98 40 -206t-45 -207q-101 -257 -294 -455q-178 -202 -399 -354q-89 -60 -201.5 -94.5t-218.5 5.5q-109 56 -113.5 171.5t20.5 219.5q50 263 196 488q5 9 12 19q50 85 131 174.5t178 72.5h3q0 -1 1 -1q142 188 351 274q99 38 192.5 13t146.5 -120z
M1126 1036v0q26 86 24.5 184t-63.5 169q-63 59 -140 41.5t-149 -71t-120 -101.5q-278 -277 -320 -666q-4 -23 -26.5 -29.5t-43.5 2.5t-20 32q29 282 195 541q-35 -16 -76.5 -66.5t-65.5 -85.5q-7 -9 -10 -14q-72 -96 -124 -203q-98 -200 -123 -422q0 -2 -1 -3
q-10 -64 -1.5 -132t76.5 -94q52 -14 108.5 -0.5t103.5 35.5q185 96 329 246q145 132 267.5 289t179.5 348zM758 -15v0q21 -18 10.5 -33.5t-34 -20.5t-42.5 8q-21 15 -64.5 18.5t-83.5 3.5q-19 0 -32 1q-88 5 -176 1q-46 -2 -91 -7q16 -15 12.5 -33t-32.5 -24
q-134 -21 -265 14q-32 11 -29.5 34.5t32.5 33.5q215 52 437 54q116 1 230 -13l18 -2q61 -1 110 -35z" />
    <glyph glyph-name="R" unicode="R" horiz-adv-x="1000" 
d="M1312 124v0q27 -5 35.5 -23t-1.5 -33.5t-38 -14.5q-605 71 -1193 222q-44 8 -70 -28q-35 -54 -65 -109q-13 -19 -37.5 -20.5t-42 10.5t-6.5 33q33 61 71 119q6 11 2 22t-16 14l-60 16q-9 -1 -18 -3l-23 -4q-26 -4 -40.5 11t-11 33t31.5 25h2h2q16 21 50 14q3 0 7 -1h8
q93 18 186 39l2 4q2 2 3 4q6 6 11 13q97 133 231 221q19 9 42.5 4.5t32 -21t-17.5 -43.5l-2 -4l-28 -46q-9 -18 -27 -21.5t-36 4.5q-40 -39 -76 -82q321 82 628 206q3 1 5 2q55 20 162.5 72t175 118.5t1.5 131.5q-45 34 -116.5 45.5t-132.5 14.5h-8q-139 9 -278 -7
q-506 -51 -947 -302l-31 -18q-41 -23 -84 -53t-61 -62q-20 -47 22.5 -54.5t103 3t93.5 18.5q5 2 9 3q237 62 458 167q6 3 12 5q24 9 43.5 -2t22.5 -29.5t-23 -31.5q-40 -18 -173.5 -71t-291.5 -98.5t-271 -40t-112 104.5q4 37 31 66t57 51q6 5 12 9q93 75 199 131
q213 110 444 172q243 75 508.5 108.5t512.5 -47.5q77 -28 111.5 -85.5t-11.5 -133.5q-63 -89 -162 -143t-200 -91l-23 -10q-363 -147 -744 -238q-18 -4 -29 -18v0q-6 -9 -3 -18.5t13 -12.5q576 -147 1169 -217z" />
    <glyph glyph-name="S" unicode="S" horiz-adv-x="860" 
d="M1019 1314v0q213 -111 103 -324q-157 -219 -387 -367l-45 -33q-98 -74 -212.5 -141.5t-231.5 -79.5q-15 -2 -33 4t-22 23q-5 52 20.5 87.5t63.5 66.5q6 6 12 11q97 89 202 168q115 88 239 163l24 16q29 21 61.5 35.5t65.5 5.5q12 -4 22 -13t9 -23q-3 -28 -31 -38
q-20 -8 -43 1q-20 -11 -50 -32l-54 -39q-18 -13 -25 -17q-74 -49 -144 -102q-71 -53 -139 -110q-12 -11 -30 -24q-29 -21 -59 -47.5t-47 -54.5q127 44 239 127l44 29q131 84 250 184q6 5 11 10q63 51 126 113.5t98 135.5q41 106 -25 164t-165 69q-310 13 -599 -110
q-244 -79 -444 -239q-54 -44 -115 -114t-66 -142q5 -72 70 -120t130 -77q8 -5 15 -8q131 -65 269 -115q96 -37 190 -78q3 -1 5 -2q81 -34 176 -87q177 97 365 152q24 6 44 -6t22.5 -29.5t-24.5 -27.5q-174 -52 -333 -140q63 -47 94 -108q28 -69 -16 -104.5t-113.5 -44.5
t-117.5 -1q-100 22 -119 84.5t61 131.5q29 24 60 45q-64 37 -90 49q-121 58 -245 104q-11 5 -22 9q-23 9 -46 17q-218 69 -389 210q-91 91 -65.5 184.5t105.5 179.5q167 180 399.5 281t468.5 151q246 70 483 -13zM525 -49v0q50 29 33 67t-66 75q-32 -19 -60 -41
q-31 -24 -38 -56.5t37 -45.5q9 -2 27.5 -3.5t37 -1t29.5 5.5z" />
    <glyph glyph-name="T" unicode="T" horiz-adv-x="321" 
d="M1605 1246v0q28 -2 35 -18.5t-4.5 -33.5t-39.5 -17q-444 6 -890 -23l-93 -6q-59 -5 -94 -54q-114 -171 -215 -350l-30 -52l-363 -626q-13 -20 -37 -21.5t-40 10.5t-5 34l190 329l191 329l12 20q98 175 209 343q5 9 1 17.5t-15 8.5q-92 -7 -183 -17q20 -12 22.5 -29.5
t-25.5 -27.5q-213 -59 -423 -22q-16 4 -22.5 17t-1.5 27t22 20q330 92 673 105q4 8 19 17l40 39l39 39q15 20 40.5 20t40 -14.5t-2.5 -37.5l-21 -24q-7 -10 -2.5 -19.5t15.5 -9.5q22 2 44 3q458 30 914 24z" />
    <glyph glyph-name="U" unicode="U" horiz-adv-x="864" 
d="M1096 1167v0q15 17 38.5 15t37.5 -17t0 -38q-67 -99 -183 -292.5l-222 -384t-144 -280.5q-10 -20 -33 -23t-41 9.5t-13 37.5q15 49 82 162.5l144 235.5l90 147t53 95q-166 -160 -335 -305l-91 -79q-194 -174 -401 -330q-72 -56 -158 -96t-180 -25q-120 31 -109 145.5
t80 245.5t121 210q9 16 17 27q123 202 277 382l31 37q43 60 100 109t127 33q15 -4 24.5 -16.5t4.5 -28.5q-35 -96 -92 -182q-14 -18 -37 -16.5t-37.5 17.5t-1.5 39q19 29 34 59q-23 -27 -40 -49l-16 -19q-57 -64 -110 -133q-109 -139 -199 -290q-90 -147 -157 -306
q-16 -38 -25.5 -88.5t9 -83.5t88.5 -20q90 26 163 85q285 211 544 453l36 33l14 12q277 235 510 513z" />
    <glyph glyph-name="V" unicode="V" horiz-adv-x="295" 
d="M1316 1364v0q24 -15 19 -33t-25.5 -27t-42.5 2q-44 19 -110 -19.5t-118 -81.5q-20 -16 -34 -26q-98 -67 -192 -139q-197 -151 -378 -322q-164 -159 -315 -331q-169 -195 -357 -370q-12 -10 -32 -9t-32 12q-34 41 -18 102t44 117q14 30 23 53q69 197 146 391
q77 193 168 380q9 17 17 35q55 141 166 236q13 8 34.5 6t35.5 -13t4 -31l-65 -108l-64 -107q-11 -17 -33 -20q-3 -7 -6 -13q-12 -28 -24 -53q-72 -150 -134 -305q-66 -162 -125 -327l-56 -157q-2 -4 -8 -18l-14 -34q108 111 210 229l125 139q181 195 382 370
q215 188 450 349q20 14 42 31q70 56 153 94.5t164 -2.5z" />
    <glyph glyph-name="W" unicode="W" horiz-adv-x="968" 
d="M1420 1660v0q13 21 36 25.5t38 -6t3 -35.5l-190 -359l-190 -358l-83 -160q-172 -337 -361 -664q-60 -103 -126 -203q-2 -4 -4 -7q-33 -58 -86 -96q-51 -31 -94 -15.5t-55 72.5q-13 149 29 314l13 65q39 206 100 408q71 238 159 471l-178 -279l-64 -101l-235 -367
q-19 -30 -38 -65q-28 -53 -62 -102.5t-80 -78.5q-85 -48 -105.5 9t-9 150t25.5 153q4 15 5 25q46 242 134 475q-18 7 -13 32q25 96 82 180q10 15 26 23.5t33 4.5q14 -4 20.5 -17t-2.5 -27q-1 -1 -1 -2l-1 -1q12 -9 6 -29q-8 -24 -17 -48l-18 -49q-4 -10 -13 -18
q-84 -212 -133 -433q-32 -144 -48 -288q-6 -51 1 -60.5t43 45.5l52 82l26 40l348 544l347 544q11 14 33.5 21t39 1t8.5 -30q-180 -440 -313 -893q-63 -226 -96 -456q-1 -3 -2 -12q-5 -29 -12 -85.5t-4.5 -102.5t26.5 -45q14 4 31 30t29 48l9 15l72 116q214 362 404 737
l92 178l104 197l78 145l77 145z" />
    <glyph glyph-name="X" unicode="X" horiz-adv-x="983" 
d="M1248 933v0q88 -43 67 -135q-7 -21 -29.5 -24t-41.5 10t-15 37q-74 62 -132 13l-59 -37l-118 -76l-236 -152l-243 -161q290 -178 620 -269q27 -9 29 -27t-14.5 -31.5t-42.5 -7.5q-348 95 -663 288l-33 -22l-105 -70l-905 -632q-20 -12 -42.5 -5t-31.5 24t13 34l1033 717
q-208 140 -371 322q-2 -13 -13 -21.5t-31 -8.5q-47 4 -63 33t-0.5 58t62.5 34q37 2 64.5 -17t52.5 -44q84 -85 174 -162q94 -79 196 -147l34 23l44 30l123 81q235 160 477 307q45 29 96.5 44t103.5 -6z" />
    <glyph glyph-name="Y" unicode="Y" horiz-adv-x="934" 
d="M1163 157v0q28 -6 36.5 -24.5t-2 -34t-38.5 -12.5q-290 32 -584 -65q-70 -84 -147 -163q-140 -155 -307 -279q-28 -20 -73 -46.5t-91.5 -35.5t-80.5 21q-29 32 -12.5 79.5t50.5 93t58 71.5l2 2q133 148 314 229q109 50 223 82q144 172 252 367q-238 -194 -509 -322
q-115 -55 -254 -54t-189 145q-32 155 42.5 321t160.5 290q123 184 264 354l98 123q-79 -57 -155 -118q-20 -14 -42.5 -7.5t-32.5 26.5q-17 39 14 67q10 10 24.5 11.5t29.5 -2.5q142 113 302 201q17 8 35 2t27 -20.5t-3 -32.5q-102 -144 -221 -286q-150 -176 -276.5 -366
t-175.5 -412q-19 -85 7 -155.5t126 -72.5q82 4 160.5 40t146.5 79q269 164 512 363q14 10 34.5 8t33.5 -14t6 -32q-112 -252 -281 -468q21 5 41 9q235 63 475 38zM254 -200v0q84 81 163 167q-155 -57 -284 -161q-66 -56 -117 -125q-26 -35 -47 -74q-8 -15 -13 -21
q-6 -7 -4 -8t16 2h1q32 6 67.5 31t63.5 51l18 14q70 59 136 124z" />
    <glyph glyph-name="Z" unicode="Z" horiz-adv-x="1039" 
d="M2099 158v0q29 0 37 -16.5t-2 -34t-38 -20.5q-1290 -61 -2554 -323q-22 -4 -37.5 8t-16 29.5t22.5 28.5q633 274 1228 624q133 76 255 168q68 52 129 113q5 6 11 12q37 34 60.5 76t-19.5 84q-18 13 -55 14t-69 -2q-16 -1 -26 -1q-91 -2 -180 -14l-37 -6q18 -9 23 -24
t-14 -30q-167 -113 -348 -24q-21 12 -20 31t23 29q186 72 384 97q4 0 8 1q82 11 171 15t168 -19q119 -43 95.5 -123.5t-105.5 -160.5t-138 -121q-299 -217 -634 -381l-70 -37q-255 -135 -516 -257q1123 210 2264 264z" />
    <glyph glyph-name="bracketleft" unicode="[" horiz-adv-x="758" 
 />
    <glyph glyph-name="backslash" unicode="\" horiz-adv-x="569" 
 />
    <glyph glyph-name="bracketright" unicode="]" horiz-adv-x="758" 
 />
    <glyph glyph-name="asciicircum" unicode="^" 
 />
    <glyph glyph-name="underscore" unicode="_" horiz-adv-x="1024" 
d="M0 -100h1024v-60h-1024v60z" />
    <glyph glyph-name="grave" unicode="`" horiz-adv-x="1024" 
d="M673 1079h-69l-330 202q-31 20 -46.5 40t-15.5 42q0 31 20.5 51t53.5 20q20 0 40.5 -12t55.5 -47z" />
    <glyph glyph-name="a" unicode="a" horiz-adv-x="685" 
d="M700 302v0q21 0 33 -12.5t9.5 -26.5t-25.5 -16q-48 -3 -97 -7q-174 -18 -344 -3q-59 6 -93 35q-38 -26 -82.5 -48t-81.5 -23t-52 35q-10 37 19.5 68.5t58.5 49.5q85 53 187 48q18 -1 26 -11t5.5 -22t-14.5 -19q10 -12 -1 -29q-7 -12 20 -18.5t68 -9t75 -2.5h40
q125 3 249 11zM94 311v0q-7 -4 -16 -10.5t-14.5 -12t-2.5 -7.5t20 3q49 19 93 58q-42 -6 -80 -31z" />
    <glyph glyph-name="b" unicode="b" horiz-adv-x="362" 
d="M337 702v0q11 14 29.5 12.5t30 -13.5t0.5 -31l-100 -164l-101 -164q45 6 76 -16.5t26 -72.5q-11 -61 -66 -89.5t-112 -18.5q-28 5 -51 18q-22 -28 -45 -54q-10 -10 -28.5 -10.5t-31 9t-5.5 26.5q21 41 51 80q-29 37 -44 84q-5 19 10 27t34 4.5t26 -20.5q7 -23 18 -45
l20 18q85 125 162 256zM167 268v0q-14 -2 -27 -10l-34 -47q67 -37 117 34q11 16 -7.5 24.5t-48.5 -1.5z" />
    <glyph glyph-name="c" unicode="c" horiz-adv-x="571" 
d="M598 272v0q22 0 29 -13t-1.5 -27t-30.5 -16q-224 -11 -449 -13h-19q-31 -1 -71 1t-70 16t-31 49q6 46 62 80t101 35q38 -2 53.5 -28t-13.5 -54q-15 -11 -32.5 -6.5t-25 18t5.5 28.5q-9 -9 -30 -28l-22.5 -21.5t-18.5 -17.5l-7 -7q1 -3 16 -5t33.5 -2.5t30.5 -0.5h8
q56 -2 113 0q20 1 41 1q164 4 328 11z" />
    <glyph glyph-name="d" unicode="d" horiz-adv-x="418" 
d="M540 715v0q14 1 28 -5.5t15 -23.5q-3 -46 -27.5 -85.5t-55.5 -74.5q-5 -7 -11 -14q-69 -84 -150 -158l-55 -49q-1 -2 -3 -4q-1 -3 -2 -5q-103 -192 -154 -404q-5 -16 -23 -18t-32.5 7.5t-11.5 28.5q38 157 104 303q-87 -57 -188 -60q-19 1 -28.5 13.5t0.5 29.5
q86 133 243 156q25 2 36 -15q15 28 32 55q69 113 154 214l19 23q22 30 49 55.5t61 30.5zM174 292v0q-74 -19 -125 -71q65 24 125 71z" />
    <glyph glyph-name="e" unicode="e" horiz-adv-x="627" 
d="M648 267v0q23 0 30 -14t-1.5 -28.5t-31.5 -15.5q-135 -3 -244.5 -4t-247.5 0q-30 -1 -78.5 6.5t-83.5 29.5t-26 66q16 42 73.5 76.5t104.5 28.5q39 -9 42.5 -35.5t-12.5 -59t-35 -59.5q38 1 76 1h53q168 0 381 8zM64 318v0q-7 -27 4 -38q19 24 33 52q-5 1 -9 2h-4
q-7 -4 -14 -9q-5 -3 -10 -7z" />
    <glyph glyph-name="f" unicode="f" horiz-adv-x="741" 
d="M773 307v0q24 -1 31.5 -16t-1.5 -29.5t-33 -14.5l-493 12q-76 -137 -211 -224l-15 -11q-22 -18 -51 -37.5t-57.5 -22.5t-48.5 27q-23 49 16 116.5t78 114.5l14 18q125 158 276 290q15 13 36.5 10t33 -15.5t-3.5 -28.5q-114 -102 -216 -215q-12 -14 -47 -58t-69.5 -95
t-44.5 -86q77 43 146 114t98 144q5 11 16.5 16t22.5 4q261 -6 523 -13z" />
    <glyph glyph-name="g" unicode="g" horiz-adv-x="590" 
d="M578 313v0q24 -6 25 -20t-12.5 -26t-34.5 -9q-204 25 -395 -111q-95 -126 -211 -225q-11 -8 -28.5 -6t-28.5 11.5t-3 25.5q77 134 214 232l47 59q-58 -36 -125 -53q-18 -4 -33 7t-10 30q40 126 162 174q41 13 78.5 2t55.5 -47q15 -4 22 -14.5t-5 -25.5l-38 -46
q159 67 320 42zM205 343v0q-15 13 -39.5 1t-45.5 -30.5t-27 -26.5q-4 -4 -7 -9l-2 -2q26 13 51 29q34 20 70 38z" />
    <glyph glyph-name="h" unicode="h" horiz-adv-x="893" 
d="M907 266v0q23 0 30 -13.5t-1.5 -27.5t-31.5 -15l-305 -4l-305 -4q-10 0 -23 -1q-32 -3 -66 1t-50 33q-11 26 0 48q-88 -55 -163 -130q-13 -11 -32 -10t-30 12t1 30q54 76 134.5 206l144.5 237q-11 8 -13 18.5t12 20.5q44 30 81 68q13 11 32 10t30 -12.5t-1 -29.5
q-68 -93 -121 -192q-48 -90 -108 -176q45 27 95 51q9 4 22 2t23 -9.5t8 -19.5q-3 -17 -6.5 -25.5t-10.5 -22.5q-13 -21 -28 -40q-7 -23 18 -13q13 -6 34 -5t42 3q18 3 31 3q54 1 108 1z" />
    <glyph glyph-name="i" unicode="i" horiz-adv-x="263" 
d="M133 398v0q-14 -3 -28.5 1t-22.5 16q-9 17 -3 35q13 31 46 32q13 9 29.5 8t28.5 -11q21 -19 5 -44q-9 -13 -24 -23.5t-31 -13.5zM263 261v0q22 5 34.5 -7t9.5 -27.5t-26 -23.5q-71 -17 -144 -16h-17q-22 -1 -45 1t-43 11q-33 20 -33.5 50t16.5 61t37 52q13 13 33.5 11
t32 -14.5t-2.5 -29.5q-11 -13 -22 -28t-16 -32q-4 -17 4 -20.5t22 -2.5q5 1 11 1q76 -3 149 14z" />
    <glyph glyph-name="j" unicode="j" horiz-adv-x="333" 
d="M249 672v0q11 17 32 18t35.5 -9t5.5 -29l-226 -385q51 -6 104 -44q18 -15 8.5 -28t-30 -18t-37.5 6q-40 28 -82 21l-16 -26l-18 -31q-28 -46 -55 -95q-91 -177 -223 -317q-10 -10 -27.5 -12t-31 5t-12.5 26q16 127 105.5 287.5t224.5 216.5zM-215 -110v0q69 101 128 208
l11 21q-59 -66 -89 -121q-31 -52 -50 -108zM370 856v0q27 -14 26 -44q-4 -29 -32 -40q-22 -8 -41 3q-20 1 -30 16q-14 28 7 52q14 15 33.5 18t36.5 -5z" />
    <glyph glyph-name="k" unicode="k" horiz-adv-x="919" 
d="M939 254v0q23 -2 31.5 -16t1 -28t-30.5 -15q-348 4 -697 7q-7 1 -12 2h-2h-2q-56 -2 -102 34q-4 4 -8 9l-86 -49q-13 -6 -32 -1t-25 21q-9 50 14.5 97.5t55.5 90.5q18 24 31 47l187 299q11 14 31 12.5t33 -14.5t3 -31l-144 -227l-69 -115q-6 -11 -17 -26q-19 -28 -37 -61
q12 8 24 15l14 8q1 9 4 16q14 33 52 53t78 12q15 3 29.5 -3.5t21.5 -17t-1 -21.5q2 -15 -11.5 -23t-30.5 -6l-66 -41q6 -12 20 -15.5t29 -3.5q6 -1 11 -2h2h3q348 -4 697 -7z" />
    <glyph glyph-name="l" unicode="l" horiz-adv-x="266" 
d="M474 759v0q27 -63 -26 -150t-133.5 -169t-135.5 -130q-6 -6 -12 -11q-8 -7 -17 -16q-40 -42 -92 -74q-47 -105 -79 -213q-7 -19 -26.5 -24.5t-35 2t-11.5 26.5q31 104 76 205q-17 13 -16.5 32.5t20.5 37.5q15 11 33 10q73 148 177 283l12 15q29 41 81 102t104 92t81 -18z
M287 514v0l27.5 34.5t50.5 67.5t43 68t8 37q-3 1 -17 -13.5l-32.5 -35l-34 -38.5l-20.5 -24l-1 -1q-105 -124 -182 -261l5 5l30 28q64 64 123 133z" />
    <glyph glyph-name="m" unicode="m" horiz-adv-x="978" 
d="M990 270v0q23 -2 28 -15.5t-5 -27t-33 -13.5q-148 1 -275 -2q-105 -2 -219 -1q-11 0 -24 -1q-32 -1 -64.5 1.5t-54.5 19.5q-14 9 -20 25q0 -1 1 6v10q-34 -22 -67 -48l-47 -34q-13 -8 -28.5 -6.5t-24 11t-2.5 25.5q15 35 33 68q-64 -31 -124 -68l-54 -32q-13 -7 -28 -6
t-24 10t-2 26q33 78 74 152q10 17 29 18.5t32 -8t5 -28.5q-18 -33 -34 -67q94 60 193 84q9 1 21 -3t18 -13t-2 -21q-4 -7 -8 -13q-2 -3 -4 -5q35 22 70 36q11 4 23 2.5t20 -9.5q8 -9 9 -15.5t-1 -13.5q-1 -4 -1 -9t2 -11q12 -25 55 -29.5t86 -1.5h37z" />
    <glyph glyph-name="n" unicode="n" horiz-adv-x="1059" 
d="M1087 266v0q21 1 33 -12t9.5 -26.5t-25.5 -16.5q-313 -21 -627 -24q-25 0 -59 -3q-53 -6 -108 -4.5t-90 25.5q-18 15 -20.5 32t1.5 36q-86 -40 -167 -92q-10 -6 -24.5 -6t-25.5 7t-10 22q8 81 41 156q9 16 28 18t33.5 -8t7.5 -28q-16 -37 -26 -75q85 48 176 85
q9 3 22 1.5t22 -8.5t9 -20q-2 -10 -5 -22q-4 -16 -5.5 -32t8.5 -27q5 -4 20 -5t33.5 0t33.5 3q14 1 19 1q106 0 212 2q242 5 484 21z" />
    <glyph glyph-name="o" unicode="o" horiz-adv-x="567" 
d="M592 282v0q22 0 29.5 -13t-0.5 -27t-31 -16q-160 -8 -320 -8q-14 0 -29 -1q-64 -2 -129 8q-6 -4 -11 -6q-28 -16 -68 -23.5t-67 17.5q-18 24 -8.5 53.5t24.5 54.5q3 4 5 9q5 7 12 12q26 52 104 62q36 3 65.5 -12t32.5 -53q0 -35 -26 -63q28 -2 56 -2h6q177 -1 355 8z
M94 306v0q-23 -6 -19.5 -11t20.5 -9q18 12 21 18.5t-22 1.5z" />
    <glyph glyph-name="p" unicode="p" horiz-adv-x="800" 
d="M836 282v0q23 0 34 -13.5t5.5 -28.5t-30.5 -18q-76 -6 -152 -14q-197 -25 -389 -22q-43 1 -81.5 10t-54.5 33q-73 -57 -136 -127q-40 -47 -76 -96q-40 -57 -87 -109q-13 -12 -32 -12t-31 10t-3 29l225 392q-2 11 9 24q4 4 8 7q4 4 7 8q13 12 32.5 12t31.5 -10t2 -29
l-44 -75l-20 -35q70 64 149 117q12 7 30 5.5t28.5 -11.5t-0.5 -27q-19 -28 7 -40.5t74.5 -14t98 2t77.5 6.5q10 1 15 1q102 8 204 17z" />
    <glyph glyph-name="q" unicode="q" horiz-adv-x="284" 
d="M256 357v0q10 -7 13.5 -17t-6.5 -22l-70 -82l-75 -87q89 -28 110 -105q6 -73 -56.5 -119.5t-125.5 -57.5q-62 -10 -102 18t-26 94q26 75 82 136q-27 4 -53 6q-10 1 -19 1q-24 4 -31.5 19.5t1.5 29.5t33 12q4 0 8 -1q45 -3 105 -14l27 33q-10 -2 -21 -3t-23.5 2t-19.5 14
q-24 51 20 104t110 76.5t109 -12.5q12 -14 10 -25zM84 91v0q-2 1 -5 1q-2 1 -5 2l-42 -58q0 -1 -2 -4q-7 -9 -18.5 -26.5t-19 -35t-2.5 -25.5q14 -17 46.5 -12.5t62 21t36.5 35.5q15 44 -1 67t-50 35zM185 343v0q-9 0 -28.5 -10.5t-39.5 -27t-33 -32.5q53 28 98 68q2 1 3 2z
" />
    <glyph glyph-name="r" unicode="r" horiz-adv-x="361" 
d="M400 405v0q9 -12 4 -27q-8 -19 -34 -23q-89 -11 -172.5 -40.5t-146.5 -104.5q-7 -10 -20 -14.5t-25 -4.5q-13 0 -22 5q-5 2 -7.5 8.5t2.5 18.5l78 159q7 14 19.5 20t25.5 7q22 1 32 -11q2 -3 2.5 -8t-3.5 -13l-17 -35q129 61 252 73q21 3 32 -10z" />
    <glyph glyph-name="s" unicode="s" horiz-adv-x="782" 
d="M805 298v0q23 -1 28 -15t-5.5 -27.5t-33.5 -14.5h-5q-201 4 -404 4h-30q-98 2 -197 -7q-36 -4 -72 -12q0 -16 4 -35q3 -14 7 -29q10 -33 10 -68q-4 -65 -71 -77q-67 -8 -117.5 34t-27.5 112q36 76 122 103q6 43 36 80q31 35 78 56t86 2q15 -8 13 -25v-4q-1 -2 -1 -4
q-3 -15 -15.5 -21.5t-27 -5t-23.5 10.5q-41 -16 -53 -34t-14 -31v-3q86 12 150 13h2q220 7 438 0zM11 98v0q16 7 17.5 17t-2.5 25q-5 20 -9 39q-2 11 -3 22q-8 -4 -15 -7q-46 -18 -50 -42t16 -41t46 -13z" />
    <glyph glyph-name="t" unicode="t" horiz-adv-x="254" 
d="M487 972v0q12 13 30.5 12.5t30 -10.5t1.5 -27l-299 -465q36 4 71 9q22 1 32 -11.5t5 -27t-29 -18.5q-58 -6 -117 -13l-107 -172q-23 -35 -41 -65l-44.5 -77l-72.5 -134q-11 -17 -30 -19t-32.5 8t-4.5 29l40 82l81 165q3 6 7 9.5t8 5t7.5 2t6 0l2.5 -0.5v0v0l0.5 1t2 3
t3.5 5t5 8l7 11.5l9 15l12 20l15.5 25.5l19 30.5t22.5 37.5l-14 -2l-49 -6q-13 -2 -28 -3q-21 0 -31 12.5t-5.5 26.5t29.5 17l12 2q7 1 13 1q23 4 46 16q12 6 25 4t23 -9q9 1 17 2l194 308q-20 3 -29.5 14.5t7.5 27.5q81 69 149 150z" />
    <glyph glyph-name="u" unicode="u" horiz-adv-x="1052" 
d="M1077 297v0q25 -3 33 -18t-1.5 -30t-34.5 -15q-132 6 -264 11q-133 6 -265 11q-40 2 -82 1q-137 -9 -258 35q-70 -73 -168 -108q-19 -7 -38 0.5t-21 29.5q0 96 55 176q12 16 33 14.5t33.5 -15.5t1.5 -34q-28 -42 -37 -86q53 31 96 84q14 13 31 13t32 -10q37 -24 90.5 -29
t105.5 -4q27 0 50 -1l196 -8q206 -9 412 -17z" />
    <glyph glyph-name="v" unicode="v" horiz-adv-x="333" 
d="M287 461v0q17 8 35.5 1.5t25 -19.5t-11.5 -25q-91 -57 -152 -147q-49 -71 -114 -125q-10 -7 -24.5 -6.5t-26 8t-10.5 21.5q9 110 28 219q5 18 23.5 23.5t35 -1.5t14.5 -26q-12 -63 -19 -127l44 55q60 91 152 149z" />
    <glyph glyph-name="w" unicode="w" horiz-adv-x="1308" 
d="M1328 266v0q23 -2 29.5 -15.5t-1.5 -27t-31 -13.5l-278 4q-142 2 -284 5l-281 4q-29 1 -60 0q-76 -5 -147 7q-26 -38 -64 -66t-82 -25q-37 5 -47 23q-43 -35 -96 -61q-19 -7 -37.5 3t-14.5 32q44 140 115 268q10 15 30 16.5t33.5 -8.5t5.5 -27q-48 -87 -84 -180
q38 33 67 76q11 13 28 13t29.5 -10t7.5 -28q-9 -31 -5 -38t16 2.5t24.5 25t20.5 27.5q6 12 18.5 17t26.5 1q96 -24 207 -14q43 2 81 1l246 -4l266 -4z" />
    <glyph glyph-name="x" unicode="x" horiz-adv-x="1025" 
d="M1007 282v0q22 -1 29 -15t-1 -27.5t-31 -13.5q-158 7 -316 3q-92 -3 -184 -9q-11 -1 -30 -1q-38 1 -80.5 -2.5t-57.5 -20.5q-9 -11 -23 -12t-27 5q-62 9 -116 42q-5 3 -10 5q-14 8 -31 19q-66 -39 -126 -88q-15 -11 -33 -5.5t-25.5 19t9.5 28.5q55 46 115 82
q-41 25 -77 26q-22 1 -29 14.5t1.5 27t30.5 15.5q71 -5 132 -50q75 39 156 66q19 5 35 -4.5t18.5 -23.5t-19.5 -23q-68 -22 -132 -54q50 -33 106 -40v0h1q32 20 76 20q7 1 15 2q92 8 185 13q219 11 439 2z" />
    <glyph glyph-name="y" unicode="y" horiz-adv-x="753" 
d="M753 318v0q21 0 33 -12.5t9.5 -26.5t-26.5 -16q-64 -4 -128 -7q-148 -6 -295 -19q-101 -7 -194 -45q-27 -38 -53 -79q-50 -88 -121 -159q-14 -11 -33.5 -6t-26.5 22q-22 76 29 141.5t125 107.5q-39 -4 -66 19q-35 40 -13 87t69 58q21 3 33 -9t9 -26.5t-25 -19.5
q-22 -14 -19 -41q22 -8 41 2q55 16 102 50q3 1 5 3q17 9 35 3t25 -19t-11 -27q-14 -9 -27 -21q183 36 374 35q76 1 149 5z" />
    <glyph glyph-name="z" unicode="z" horiz-adv-x="727" 
d="M761 316v0q23 -2 29.5 -16t-1.5 -27t-31 -14q-188 5 -377 4q-99 0 -198 -2h-10q-27 0 -74 -3q-61 -72 -113 -105q-14 -8 -30.5 -6.5t-26.5 14.5q-39 70 5 104t110 43q15 22 27 46q-25 62 -56 25q-16 -11 -34 -5.5t-25 19.5t10 28q42 33 97.5 41.5t83.5 -48.5
q16 -46 -12 -98q313 8 626 0z" />
    <glyph glyph-name="braceleft" unicode="{" 
d="M240 698q172 5 223 71t51 133v468q0 74 77 141.5t185 67.5h108v-50h-90q-61 0 -107 -33.5t-47 -91.5v-500q0 -83 -60.5 -158.5t-142.5 -76.5v-2q82 -1 143 -76t61 -158l-1 -500q1 -58 47 -91.5t107 -33.5h90v-50h-108q-108 0 -184.5 67.5t-77.5 141.5v468q0 66 -51 132
t-223 71v60z" />
    <glyph glyph-name="bar" unicode="|" 
d="M427 1577h160v-1995h-160v1995z" />
    <glyph glyph-name="braceright" unicode="}" 
d="M774 638q-172 -5 -223 -71t-51 -132v-468q-1 -74 -77.5 -141.5t-184.5 -67.5h-108v50h90q61 0 107 33.5t47 91.5l-1 500q0 83 61 158t144 76v2q-83 1 -143.5 76.5t-60.5 158.5v500q-1 58 -47 91.5t-107 33.5h-90v50h108q108 0 185 -67.5t77 -141.5v-468q0 -67 51 -133
t223 -71v-60z" />
    <glyph glyph-name="asciitilde" unicode="~" 
d="M923 878v-156q-63 -72 -122 -97.5t-116 -25.5q-60 0 -177.5 48.5t-176.5 48.5q-51 0 -107.5 -28t-129.5 -112v156q64 73 123 99t114 26q64 0 181.5 -49.5t172.5 -49.5q52 0 108.5 28t129.5 112z" />
    <glyph glyph-name="exclamdown" unicode="&#xa1;" horiz-adv-x="672" 
 />
    <glyph glyph-name="cent" unicode="&#xa2;" horiz-adv-x="1139" 
 />
    <glyph glyph-name="sterling" unicode="&#xa3;" 
d="M748 1347q-72 31 -160 31h-2q-100 0 -190 -101q-84 -93 -84 -241q0 -15 1 -30q0 -135 53 -273h360v-60h-334q14 -30 31 -60q35 -63 35 -138q0 -161 -162 -375h402q130 0 189 132l49 -1l-103 -231h-719l1 50q187 238 187 418q0 77 -34 143q-17 32 -31 62h-161v60h135
q-58 143 -58 253q0 226 123.5 347t306.5 121h4q75 0 185.5 -14t110.5 -34v-161h-58q-5 61 -77 102z" />
    <glyph glyph-name="currency" unicode="&#xa4;" 
d="M350 560q41 -40 99 -57q29 -8 58 -8t58 8q58 17 99 57q40 41 57 99q9 29 9 58t-9 58q-17 58 -57 99q-41 40 -100 57q-29 8 -58 8t-58 -9q-58 -17 -98 -56q-39 -40 -56 -98q-10 -30 -10 -60q0 -28 9 -56q16 -59 57 -100zM240 903l-118 118l80 81l118 -118q44 30 99 46
q44 14 89 14q41 0 83 -12q57 -17 102 -48l118 118l80 -81l-117 -117q31 -46 48 -102q12 -42 12 -85q0 -42 -12 -85q-17 -56 -48 -102l117 -117l-80 -81l-118 118q-45 -32 -101 -48q-42 -12 -85 -12q-42 0 -85 12q-57 16 -102 48l-118 -118l-80 81l118 117q-32 46 -48 103
q-12 42 -12 84q0 44 13 87q16 55 47 99z" />
    <glyph glyph-name="yen" unicode="&#xa5;" horiz-adv-x="1262" 
d="M547 225l-2 242q0 19 -1.5 35t-4.5 32l-484 1q-14 0 -21 6.5t-7 19.5t6.5 19t21.5 6h467l-121 172h-344q-17 0 -23.5 5.5t-6.5 18.5q0 14 6 19.5t22 5.5h307q-43 57 -108 155q-131 197 -227 197q-7 0 -13 5.5t-6 11.5q0 19 10.5 27.5t32.5 8.5q27 0 123 -8t164 -8h88
q33 0 41 -6.5t8 -26.5q0 -8 -15 -14t-38 -6q-6 0 -18.5 2t-18.5 2q-24 0 -37.5 -9.5t-13.5 -25.5q0 -18 16.5 -52t46.5 -77l158 -221q13 -19 33 -53q41 -70 71 -70q9 0 16.5 5t14.5 15l277 396q8 12 13 26.5t5 24.5q0 18 -10 27t-37 14q-15 2 -41 4q-47 3 -47 25
q0 15 8 22.5t25 7.5q3 0 15 -1q56 -7 108 -7h139q30 0 65 1t37 1q11 0 18.5 -4.5t8.5 -11.5q0 -28 -38 -34q-18 -3 -27 -5q-63 -15 -147 -117l-12 -15l-169 -206h323q15 0 24 -6t9 -17q0 -15 -6 -20.5t-23 -5.5h-366q-46 -57 -96.5 -112.5t-52.5 -59.5h511q18 0 25.5 -5.5
t7.5 -17.5q0 -14 -7 -21t-22 -7h-530q0 -11 -1 -30.5t-1 -29.5l2 -215q0 -114 5.5 -150t20.5 -44q30 -17 107.5 -19t77.5 -31q0 -12 -10 -20t-25 -8q-2 0 -35.5 4t-64.5 4q-91 0 -208.5 -4t-142.5 -4q-31 0 -40 4t-9 16t8 18.5t37 12.5q9 2 25 5q74 16 92 32q17 13 24 47
t7 102z" />
    <glyph glyph-name="brokenbar" unicode="&#xa6;" 
d="M427 371h160v-789h-160v789zM427 1578h160v-789h-160v789z" />
    <glyph glyph-name="section" unicode="&#xa7;" 
d="M545 321q56 16 97 53q73 65 73 166q0 5 -1 10h-2q-1 14 -4 27q-22 61 -113 127q-59 29 -126 29q-78 0 -125 -44.5t-47 -117.5q0 -123 248 -250zM466 -346q113 6 185 69q72 64 72 165q0 125 -316 276q-123 64 -175.5 137t-52.5 177q0 148 89 237q67 65 170 82l-40 19
q-123 64 -175.5 137t-52.5 177q0 148 89 237q82 79 216 86q8 1 17 1h3q66 0 163 -16.5t97 -41.5v-194h-51q-5 81 -80 132q-70 47 -149 51h-15q-78 0 -125 -44.5t-47 -117.5q0 -132 287 -269q149 -67 204.5 -143.5t55.5 -187.5q0 -171 -101 -282q-47 -39 -99 -64
q108 -56 154 -118q55 -77 55 -187q0 -171 -101 -283q-124 -102 -277 -105v1q-6 -1 -13 -1h-3q-66 0 -163 16.5t-97 41.5v194h51q5 -81 80 -132q68 -45 145 -50z" />
    <glyph glyph-name="dieresis" unicode="&#xa8;" horiz-adv-x="1024" 
d="M223 1289l71 72q13 12 25 12q11 0 27 -14l69 -73q10 -14 10 -25q0 -13 -12 -27l-69 -75q-17 -17 -25 -17q-14 0 -25 12l-76 86q-9 12 -9 23q0 13 14 26zM588 1289l71 72q13 12 25 12q11 0 27 -13l69 -74q10 -14 10 -25q0 -13 -12 -26l-69 -76q-17 -17 -25 -17
q-14 0 -25 12l-76 87q-9 11 -9 22q0 13 14 26z" />
    <glyph glyph-name="copyright" unicode="&#xa9;" horiz-adv-x="1674" 
d="M840 1456q145 0 280 -56.5t239 -160.5q102 -101 158.5 -238t56.5 -283q0 -147 -56.5 -282t-162.5 -240q-105 -105 -239 -159.5t-283 -54.5q-146 0 -278 55.5t-238 160.5q-106 104 -161.5 237.5t-55.5 282.5q0 148 55.5 283t159.5 238q102 104 238.5 160.5t286.5 56.5z
M357 1197q-95 -96 -146 -219.5t-51 -259.5q0 -137 51 -259t148 -219q98 -96 219 -147t256 -51q137 0 259.5 50.5t219.5 145.5q97 98 149 221.5t52 258.5q0 134 -52 259.5t-145 219.5q-96 96 -220 147.5t-258 51.5q-137 0 -262 -51.5t-220 -147.5zM865 223q-142 0 -264 68
t-186 185t-64 243t65.5 244t187.5 184.5t254 66.5q38 0 75 -6.5t76 -20.5q5 -1 9 -1q19 0 26 30h42l72 -198h-44q-52 94 -131 124q-72 26 -147 26h-15q-86 -8 -166.5 -71t-121.5 -177q-33 -90 -33 -184q0 -25 2 -50q11 -121 69.5 -224t149.5 -152q72 -40 166 -42
q124 0 194 56t70 126h53v-100q0 -46 -96.5 -86.5t-242.5 -40.5z" />
    <glyph glyph-name="ordfeminine" unicode="&#xaa;" horiz-adv-x="648" 
 />
    <glyph glyph-name="guillemotleft" unicode="&#xab;" horiz-adv-x="944" 
d="M174 479l342 303h14v-37l-205 -266l205 -266v-37h-14zM487 479l342 303h14v-37l-205 -266l205 -266v-37h-14z" />
    <glyph glyph-name="logicalnot" unicode="&#xac;" 
d="M87 767h840v-491l-1 -1h-98v392h-741v100z" />
    <glyph glyph-name="registered" unicode="&#xae;" horiz-adv-x="1674" 
d="M751 1099v-374l3 -8q23 -56 56 -81q29 -22 56 -22h6q31 4 61.5 38.5t46.5 97.5q13 50 13 103q0 13 -1 27q-4 67 -28 124.5t-56.5 76t-63.5 18.5h-93zM984 576l82 -116q100 -141 150 -141h34v-50h-346v50h45q30 0 30 22q0 29 -69 114l-75 102q-42 0 -84 42v-159
q0 -121 36 -121h53v-50h-316v50h43q37 0 37 121v538q0 121 -37 121h-43v70h356q64 -1 125 -42q60 -41 92.5 -114t32.5 -152q0 -78 -32 -150.5t-114 -134.5zM840 1456q145 0 280 -56.5t239 -160.5q102 -101 158.5 -238t56.5 -283q0 -147 -56.5 -282t-162.5 -240
q-105 -105 -239 -159.5t-283 -54.5q-146 0 -278 55.5t-238 160.5q-106 104 -161.5 237.5t-55.5 282.5q0 148 55.5 283t159.5 238q102 104 238.5 160.5t286.5 56.5zM357 1197q-95 -96 -146 -219.5t-51 -259.5q0 -137 51 -259t148 -219q98 -96 219 -147t256 -51
q137 0 259.5 50.5t219.5 145.5q97 98 149 221.5t52 258.5q0 134 -52 259.5t-145 219.5q-96 96 -220 147.5t-258 51.5q-137 0 -262 -51.5t-220 -147.5z" />
    <glyph glyph-name="macron" unicode="&#xaf;" horiz-adv-x="670" 
 />
    <glyph glyph-name="degree" unicode="&#xb0;" horiz-adv-x="674" 
d="M339 1372q-86 0 -147.5 -61t-61.5 -148t61 -147t148 -60t147 60t60 147t-60.5 148t-146.5 61zM339 1442q115 0 196 -81.5t81 -196.5q0 -114 -82 -196t-197 -82q-117 0 -197 81t-80 197t81.5 197t197.5 81z" />
    <glyph glyph-name="plusminus" unicode="&#xb1;" 
 />
    <glyph glyph-name="uni00B2" unicode="&#xb2;" 
 />
    <glyph glyph-name="uni00B3" unicode="&#xb3;" 
 />
    <glyph glyph-name="acute" unicode="&#xb4;" horiz-adv-x="1024" 
d="M607 1375q35 35 55.5 47t40.5 12q33 0 53.5 -20t20.5 -51q0 -22 -15.5 -42t-46.5 -40l-330 -203h-69z" />
    <glyph glyph-name="mu" unicode="&#xb5;" horiz-adv-x="1180" 
 />
    <glyph glyph-name="paragraph" unicode="&#xb6;" horiz-adv-x="1024" 
d="M929 1435v-70h-127v-1365h-82v1365h-166v-1365h-84v738q-174 8 -275.5 102.5t-101.5 245.5q0 157 107.5 253t285.5 96h443z" />
    <glyph glyph-name="periodcentered" unicode="&#xb7;" horiz-adv-x="508" 
d="M145 740l82 84q15 14 29 14q13 0 31 -16l80 -86q12 -16 12 -29q0 -15 -14 -31l-80 -88q-20 -20 -29 -20q-16 0 -29 14l-88 101q-10 13 -10 26q0 15 16 31z" />
    <glyph glyph-name="periodcentered" unicode="&#x2219;" horiz-adv-x="508" 
d="M145 740l82 84q15 14 29 14q13 0 31 -16l80 -86q12 -16 12 -29q0 -15 -14 -31l-80 -88q-20 -20 -29 -20q-16 0 -29 14l-88 101q-10 13 -10 26q0 15 16 31z" />
    <glyph glyph-name="cedilla" unicode="&#xb8;" horiz-adv-x="1024" 
d="M360 -290q85 -52 152 -52q66 0 94.5 21.5t28.5 66.5t-49 64q-40 16 -102 16q-16 0 -34 -2l48 176h63l-37 -104q32 4 62 5q86 0 134 -40.5t48 -113.5q0 -76 -58.5 -120.5t-160.5 -44.5q-109 0 -189 32v96z" />
    <glyph glyph-name="uni00B9" unicode="&#xb9;" 
 />
    <glyph glyph-name="ordmasculine" unicode="&#xba;" horiz-adv-x="718" 
 />
    <glyph glyph-name="guillemotright" unicode="&#xbb;" horiz-adv-x="944" 
d="M115 176h-14v37l205 266l-205 266v37h14l342 -303zM428 176h-14v37l205 266l-205 266v37h14l342 -303z" />
    <glyph glyph-name="onequarter" unicode="&#xbc;" horiz-adv-x="1708" 
 />
    <glyph glyph-name="onehalf" unicode="&#xbd;" horiz-adv-x="1964" 
 />
    <glyph glyph-name="threequarters" unicode="&#xbe;" horiz-adv-x="1708" 
 />
    <glyph glyph-name="questiondown" unicode="&#xbf;" horiz-adv-x="748" 
 />
    <glyph glyph-name="Agrave" unicode="&#xc0;" horiz-adv-x="1540" 
 />
    <glyph glyph-name="Aacute" unicode="&#xc1;" horiz-adv-x="1540" 
 />
    <glyph glyph-name="Acircumflex" unicode="&#xc2;" horiz-adv-x="1540" 
 />
    <glyph glyph-name="Atilde" unicode="&#xc3;" horiz-adv-x="1540" 
 />
    <glyph glyph-name="Adieresis" unicode="&#xc4;" horiz-adv-x="1540" 
 />
    <glyph glyph-name="Aring" unicode="&#xc5;" horiz-adv-x="1540" 
 />
    <glyph glyph-name="AE" unicode="&#xc6;" horiz-adv-x="2118" 
 />
    <glyph glyph-name="Ccedilla" unicode="&#xc7;" horiz-adv-x="1399" 
 />
    <glyph glyph-name="Egrave" unicode="&#xc8;" horiz-adv-x="1151" 
 />
    <glyph glyph-name="Eacute" unicode="&#xc9;" horiz-adv-x="1151" 
 />
    <glyph glyph-name="Ecircumflex" unicode="&#xca;" horiz-adv-x="1151" 
 />
    <glyph glyph-name="Edieresis" unicode="&#xcb;" horiz-adv-x="1151" 
 />
    <glyph glyph-name="Igrave" unicode="&#xcc;" horiz-adv-x="657" 
 />
    <glyph glyph-name="Iacute" unicode="&#xcd;" horiz-adv-x="657" 
 />
    <glyph glyph-name="Icircumflex" unicode="&#xce;" horiz-adv-x="657" 
 />
    <glyph glyph-name="Idieresis" unicode="&#xcf;" horiz-adv-x="657" 
 />
    <glyph glyph-name="Eth" unicode="&#xd0;" horiz-adv-x="1518" 
 />
    <glyph glyph-name="Ntilde" unicode="&#xd1;" horiz-adv-x="1554" 
 />
    <glyph glyph-name="Ograve" unicode="&#xd2;" horiz-adv-x="1614" 
 />
    <glyph glyph-name="Oacute" unicode="&#xd3;" horiz-adv-x="1614" 
 />
    <glyph glyph-name="Ocircumflex" unicode="&#xd4;" horiz-adv-x="1614" 
 />
    <glyph glyph-name="Otilde" unicode="&#xd5;" horiz-adv-x="1614" 
 />
    <glyph glyph-name="Odieresis" unicode="&#xd6;" horiz-adv-x="1614" 
 />
    <glyph glyph-name="multiply" unicode="&#xd7;" 
d="M507 618l-247 -247l-99 99l247 247l-247 248l99 98l247 -247l248 247l98 -99l-247 -247l247 -247l-99 -99z" />
    <glyph glyph-name="Oslash" unicode="&#xd8;" horiz-adv-x="1614" 
 />
    <glyph glyph-name="Ugrave" unicode="&#xd9;" horiz-adv-x="1501" 
 />
    <glyph glyph-name="Uacute" unicode="&#xda;" horiz-adv-x="1501" 
 />
    <glyph glyph-name="Ucircumflex" unicode="&#xdb;" horiz-adv-x="1501" 
 />
    <glyph glyph-name="Udieresis" unicode="&#xdc;" horiz-adv-x="1501" 
 />
    <glyph glyph-name="Yacute" unicode="&#xdd;" horiz-adv-x="1233" 
 />
    <glyph glyph-name="Thorn" unicode="&#xde;" horiz-adv-x="1120" 
 />
    <glyph glyph-name="germandbls" unicode="&#xdf;" horiz-adv-x="1251" 
 />
    <glyph glyph-name="agrave" unicode="&#xe0;" horiz-adv-x="922" 
 />
    <glyph glyph-name="aacute" unicode="&#xe1;" horiz-adv-x="922" 
 />
    <glyph glyph-name="acircumflex" unicode="&#xe2;" horiz-adv-x="922" 
 />
    <glyph glyph-name="atilde" unicode="&#xe3;" horiz-adv-x="922" 
 />
    <glyph glyph-name="adieresis" unicode="&#xe4;" horiz-adv-x="922" 
 />
    <glyph glyph-name="aring" unicode="&#xe5;" horiz-adv-x="922" 
 />
    <glyph glyph-name="ae" unicode="&#xe6;" horiz-adv-x="1454" 
 />
    <glyph glyph-name="ccedilla" unicode="&#xe7;" horiz-adv-x="905" 
 />
    <glyph glyph-name="egrave" unicode="&#xe8;" horiz-adv-x="909" 
 />
    <glyph glyph-name="eacute" unicode="&#xe9;" horiz-adv-x="909" 
 />
    <glyph glyph-name="ecircumflex" unicode="&#xea;" horiz-adv-x="909" 
 />
    <glyph glyph-name="edieresis" unicode="&#xeb;" horiz-adv-x="909" 
 />
    <glyph glyph-name="igrave" unicode="&#xec;" horiz-adv-x="514" 
 />
    <glyph glyph-name="iacute" unicode="&#xed;" horiz-adv-x="514" 
 />
    <glyph glyph-name="icircumflex" unicode="&#xee;" horiz-adv-x="514" 
 />
    <glyph glyph-name="idieresis" unicode="&#xef;" horiz-adv-x="514" 
 />
    <glyph glyph-name="eth" unicode="&#xf0;" horiz-adv-x="1139" 
 />
    <glyph glyph-name="ntilde" unicode="&#xf1;" horiz-adv-x="1108" 
 />
    <glyph glyph-name="ograve" unicode="&#xf2;" horiz-adv-x="1010" 
 />
    <glyph glyph-name="oacute" unicode="&#xf3;" horiz-adv-x="1010" 
 />
    <glyph glyph-name="ocircumflex" unicode="&#xf4;" horiz-adv-x="1010" 
 />
    <glyph glyph-name="otilde" unicode="&#xf5;" horiz-adv-x="1010" 
 />
    <glyph glyph-name="odieresis" unicode="&#xf6;" horiz-adv-x="1010" 
 />
    <glyph glyph-name="divide" unicode="&#xf7;" 
d="M87 647v140h839l1 -1v-139h-840zM398 408l82 84q15 14 29 14q13 0 31 -16l80 -86q12 -16 12 -29q0 -15 -14 -31l-80 -88q-20 -20 -29 -20q-16 0 -29 14l-88 101q-10 13 -10 26q0 15 16 31zM398 1101l82 84q15 14 29 14q13 0 31 -16l80 -86q12 -16 12 -29q0 -15 -14 -31
l-80 -88q-20 -20 -29 -20q-16 0 -29 14l-88 101q-10 13 -10 26q0 15 16 31z" />
    <glyph glyph-name="oslash" unicode="&#xf8;" horiz-adv-x="1010" 
 />
    <glyph glyph-name="ugrave" unicode="&#xf9;" horiz-adv-x="1059" 
 />
    <glyph glyph-name="uacute" unicode="&#xfa;" horiz-adv-x="1059" 
 />
    <glyph glyph-name="ucircumflex" unicode="&#xfb;" horiz-adv-x="1059" 
 />
    <glyph glyph-name="udieresis" unicode="&#xfc;" horiz-adv-x="1059" 
 />
    <glyph glyph-name="yacute" unicode="&#xfd;" horiz-adv-x="868" 
 />
    <glyph glyph-name="thorn" unicode="&#xfe;" horiz-adv-x="1010" 
 />
    <glyph glyph-name="ydieresis" unicode="&#xff;" horiz-adv-x="868" 
 />
    <glyph glyph-name="dotlessi" unicode="&#x131;" horiz-adv-x="514" 
d="M328 223q0 -173 100 -173h46v-50h-442v50h46q100 0 100 173v432q0 77 -111 77h-48v44q222 69 261 182h48v-735z" />
    <glyph glyph-name="circumflex" unicode="&#x2c6;" horiz-adv-x="1024" 
d="M221 1079l232 355h118l232 -355h-58l-233 216l-233 -216h-58z" />
    <glyph glyph-name="caron" unicode="&#x2c7;" horiz-adv-x="1024" 
d="M221 1434h58l233 -214l233 214h58l-232 -356h-118z" />
    <glyph glyph-name="uni02C9" unicode="&#x2c9;" horiz-adv-x="1024" 
d="M254 1195v125h516v-125h-516z" />
    <glyph glyph-name="breve" unicode="&#x2d8;" horiz-adv-x="1024" 
d="M219 1349h51q17 -73 75 -107t167 -34t166 33.5t74 107.5h51q-20 -133 -94 -201.5t-197 -68.5q-122 0 -197 69t-96 201z" />
    <glyph glyph-name="dotaccent" unicode="&#x2d9;" horiz-adv-x="1024" 
d="M422 1289l69 72q6 6 13 9t14 3q6 0 12.5 -3t12.5 -9l71 -76q5 -4 7 -10t2 -14q-1 -9 -3 -15t-8 -12l-71 -76q-12 -11 -16 -13.5t-7 -2.5q-10 0 -16.5 2.5t-10.5 8.5l-75 87q-4 4 -6 9.5t-2 13.5q0 6 3 12.5t11 13.5z" />
    <glyph glyph-name="ring" unicode="&#x2da;" horiz-adv-x="1024" 
d="M411 1257q0 -42 29 -71t71 -29t71 29t29 71q0 40 -29.5 69.5t-70.5 29.5t-70.5 -29.5t-29.5 -69.5zM335 1257q0 75 51 126t125 51q76 0 127.5 -51.5t51.5 -125.5q0 -75 -51.5 -126.5t-127.5 -51.5q-74 0 -125 51.5t-51 126.5z" />
    <glyph glyph-name="ogonek" unicode="&#x2db;" horiz-adv-x="1024" 
d="M640 0q-71 -62 -110.5 -119.5t-39.5 -112.5q0 -47 27 -75t73 -28q40 0 69.5 15.5t49.5 48.5l28 -16q-36 -63 -90.5 -97t-119.5 -34q-70 0 -114 35.5t-44 90.5q0 76 60.5 156.5t161.5 135.5h49z" />
    <glyph glyph-name="tilde" unicode="&#x2dc;" horiz-adv-x="1024" 
d="M808 1382q-20 -103 -68.5 -154t-126.5 -51h-4q-50 0 -113 23q-66 24 -114 24q-39 0 -60.5 -20.5t-33.5 -71.5h-54q19 106 68 158.5t129 52.5q46 -1 113 -24q64 -23 112 -23h4q36 0 58 20t36 66h54z" />
    <glyph glyph-name="hungarumlaut" unicode="&#x2dd;" horiz-adv-x="1024" 
d="M217 1079l144 273q24 44 45.5 63t46.5 19q28 0 48 -20t20 -47q0 -16 -10.5 -35t-30.5 -41l-205 -212h-58zM502 1079l144 273q24 44 45.5 63t46.5 19q28 0 48 -20t20 -47q0 -16 -10.5 -35t-30.5 -41l-205 -212h-58z" />
    <glyph glyph-name="endash" unicode="&#x2013;" horiz-adv-x="1108" 
d="M56 419v120h996v-120h-996z" />
    <glyph glyph-name="emdash" unicode="&#x2014;" horiz-adv-x="2048" 
d="M0 419v120h2048v-120h-2048z" />
    <glyph glyph-name="quoteleft" unicode="&#x2018;" horiz-adv-x="557" 
d="M319 1016q-44 0 -88.5 65.5t-44.5 151.5q0 109 71 226.5t139 117.5v-43q-73 -43 -87 -190q0 -119 129 -161v-42z" />
    <glyph glyph-name="quoteright" unicode="&#x2019;" horiz-adv-x="557" 
d="M238 1577q44 0 88.5 -65.5t44.5 -151.5q0 -109 -71 -226.5t-139 -117.5v43q73 43 87 190q0 119 -129 161v42z" />
    <glyph glyph-name="quotesinglbase" unicode="&#x201a;" horiz-adv-x="557" 
d="M238 281q44 0 88.5 -65.5t44.5 -151.5q0 -109 -71 -226.5t-139 -117.5v43q73 43 87 190q0 119 -129 161v42z" />
    <glyph glyph-name="quotedblleft" unicode="&#x201c;" horiz-adv-x="910" 
d="M319 1016q-44 0 -88.5 65.5t-44.5 151.5q0 109 71 226.5t139 117.5v-43q-73 -43 -87 -190q0 -119 129 -161v-42zM672 1016q-44 0 -88.5 65.5t-44.5 151.5q0 109 71 226.5t139 117.5v-43q-73 -43 -87 -190q0 -119 129 -161v-42z" />
    <glyph glyph-name="quotedblright" unicode="&#x201d;" horiz-adv-x="910" 
d="M238 1577q44 0 88.5 -65.5t44.5 -151.5q0 -109 -71 -226.5t-139 -117.5v43q73 43 87 190q0 119 -129 161v42zM591 1577q44 0 88.5 -65.5t44.5 -151.5q0 -109 -71 -226.5t-139 -117.5v43q73 43 87 190q0 119 -129 161v42z" />
    <glyph glyph-name="quotedblbase" unicode="&#x201e;" horiz-adv-x="910" 
d="M238 281q44 0 88.5 -65.5t44.5 -151.5q0 -109 -71 -226.5t-139 -117.5v43q73 43 87 190q0 119 -129 161v42zM591 281q44 0 88.5 -65.5t44.5 -151.5q0 -109 -71 -226.5t-139 -117.5v43q73 43 87 190q0 119 -129 161v42z" />
    <glyph glyph-name="dagger" unicode="&#x2020;" 
d="M486 1022q-8 97 -54 178q-57 101 -57 129q0 49 36 78.5t96 29.5q57 0 94.5 -27.5t37.5 -71.5q0 -32 -55 -137q-46 -85 -55 -179q96 8 177 54q101 57 129 57q49 0 79 -36t30 -96q0 -57 -27.5 -94.5t-72.5 -37.5q-32 0 -136 55q-85 46 -179 57q8 -176 110 -277
q-106 -460 -112 -974h-38q-6 514 -114 974q102 101 111 277q-96 -10 -178 -55q-101 -57 -129 -57q-49 0 -78.5 36t-29.5 96q0 57 27.5 94.5t71.5 37.5q32 0 137 -56q85 -46 179 -55z" />
    <glyph glyph-name="daggerdbl" unicode="&#x2021;" 
d="M528 186q94 11 179 57q104 55 136 55q45 0 72.5 -37.5t27.5 -94.5q0 -60 -30 -96t-79 -36q-28 0 -129 57q-81 46 -177 54q9 -94 55 -179q55 -105 55 -137q0 -44 -37.5 -71.5t-94.5 -27.5q-60 0 -96 29.5t-36 78.5q0 28 57 129q46 81 54 178q-94 -9 -179 -55
q-105 -56 -137 -56q-44 0 -71.5 37.5t-27.5 94.5q0 60 29.5 96t78.5 36q28 0 129 -57q82 -45 178 -55q-9 226 -111 398q102 171 111 397q-96 -10 -178 -55q-101 -57 -129 -57q-49 0 -78.5 36t-29.5 96q0 57 27.5 94.5t71.5 37.5q32 0 137 -56q85 -46 179 -55q-8 97 -54 178
q-57 101 -57 129q0 49 36 78.5t96 29.5q57 0 94.5 -27.5t37.5 -71.5q0 -32 -55 -137q-46 -85 -55 -179q96 8 177 54q101 57 129 57q49 0 79 -36t30 -96q0 -57 -27.5 -94.5t-72.5 -37.5q-32 0 -136 55q-85 46 -179 57q8 -226 110 -397q-102 -172 -110 -398z" />
    <glyph glyph-name="bullet" unicode="&#x2022;" horiz-adv-x="1024" 
d="M216 718q0 123 87 209t210 86q122 0 208.5 -86.5t86.5 -208.5t-87.5 -209.5t-209.5 -87.5q-123 0 -209 87t-86 210z" />
    <glyph glyph-name="ellipsis" unicode="&#x2026;" horiz-adv-x="2048" 
d="M145 167l82 84q15 14 29 14q13 0 31 -16l80 -86q12 -16 12 -29q0 -15 -14 -31l-80 -88q-20 -20 -29 -20q-16 0 -29 14l-88 101q-10 13 -10 26q0 15 16 31zM828 167l82 84q15 14 29 14q13 0 31 -16l80 -86q12 -16 12 -29q0 -15 -14 -31l-80 -88q-20 -20 -29 -20
q-16 0 -29 14l-88 101q-10 13 -10 26q0 15 16 31zM1511 167l82 84q15 14 29 14q13 0 31 -16l80 -86q12 -16 12 -29q0 -15 -14 -31l-80 -88q-20 -20 -29 -20q-16 0 -29 14l-88 101q-10 13 -10 26q0 15 16 31z" />
    <glyph glyph-name="guilsinglleft" unicode="&#x2039;" horiz-adv-x="631" 
d="M174 479l342 303h14v-37l-205 -266l205 -266v-37h-14z" />
    <glyph glyph-name="guilsinglright" unicode="&#x203a;" horiz-adv-x="631" 
d="M115 176h-14v37l205 266l-205 266v37h14l342 -303z" />
    <glyph glyph-name="fraction" unicode="&#x2044;" horiz-adv-x="342" 
d="M-342 -29l940 1461h84l-938 -1461h-86z" />
    <glyph glyph-name="fraction" unicode="&#x2215;" horiz-adv-x="342" 
d="M-342 -29l940 1461h84l-938 -1461h-86z" />
    <glyph glyph-name="franc" unicode="&#x20a3;" 
d="M247 357h-194v60h194v732q0 235 -103 235h-96v50h915l103 -231h-49q-59 182 -190 182l-316 -1q-102 0 -102 -235v-352h361q100 0 100 63v58h50v-342h-50v60q0 62 -100 62h-361v-281h194v-60h-194v-72q0 -235 102 -235h97v-50h-560v50h96q103 0 103 235v72z" />
    <glyph glyph-name="lira" unicode="&#x20a4;" 
d="M748 1347q-72 31 -160 31h-2q-100 0 -190 -101q-84 -93 -84 -241q0 -15 1 -30q0 -106 33 -213h380v-60h-360q12 -30 26 -60h352v-60h-321q35 -63 35 -138q0 -161 -162 -375h402q130 0 189 132l49 -1l-103 -231h-719l1 50q187 238 187 418q0 77 -34 143l-2 2h-172v60h143
l-26 60h-135v60h113q-36 107 -36 193q0 226 123.5 347t310.5 121q75 0 185.5 -14t110.5 -34v-161h-58q-5 61 -77 102z" />
    <glyph glyph-name="peseta" unicode="&#x20a7;" horiz-adv-x="2028" 
d="M409 1384v-662q3 -9 7 -17q41 -102 108 -153q57 -44 116 -44q10 0 19 1q68 8 127 75t87 177q22 87 22 179q0 24 -1 47q-7 116 -49.5 218.5t-108.5 144.5q-56 35 -112 35q-10 0 -21 -1h-194zM1496 908h-179v-685q0 -81 34 -119q28 -31 81 -37l-71 192l49 1
q55 -130 114 -174q57 -44 127 -44h7q92 0 151 52q59 53 59 136q0 102 -259 226q-101 52 -144 112t-43 145q0 121 73 194zM1039 910q-7 -101 -48 -194q-50 -114 -141 -177.5t-190 -63.5q-100 0 -191 64q-33 22 -60 51v-305q0 -235 102 -235h97v-50h-560v50h96q103 0 103 235
v864q0 235 -103 235h-96v50h618q92 -2 181 -62q91 -62 143 -177q50 -113 51 -237h10q216 0 216 355h50v-355h259q42 19 110 20h2q54 0 133.5 -13.5t79.5 -33.5v-159h-42q-4 66 -65.5 108t-133.5 42q-64 0 -102.5 -36.5t-38.5 -96.5q0 -108 235 -220q122 -55 167.5 -117.5
t45.5 -153.5q0 -140 -83 -231q-102 -84 -228 -86q-58 0 -105 11q-28 6 -56 6q-18 0 -36 -3q-28 -5 -59 -5q-124 0 -173.5 57t-57.5 176h-1v687h-129z" />
    <glyph glyph-name="Euro" unicode="&#x20ac;" 
d="M140 372q-62 135 -76 281h-108l17 60h87v29q0 16 1 31h-71l17 60h58q14 145 76 281q81 178 226 274t298 96q43 0 87 -8q40 -10 82 -29q8 -6 16 -6q20 0 34 45h41l84 -281l-40 -1q-49 134 -138 178q-43 22 -81 32v3q-50 16 -101 16q-17 0 -34 -2q-120 -12 -226 -113.5
t-157 -273.5q-32 -104 -39 -211h706l-17 -60h-692q0 -30 2 -60h674l-17 -60h-652q17 -158 83 -298q74 -157 193 -236q102 -68 216 -69q186 3 256 91q74 91 74 185h48v-143q0 -70 -111 -127q-105 -54 -267 -56q-181 0 -325.5 98t-223.5 274z" />
    <glyph glyph-name="uni2116" unicode="&#x2116;" horiz-adv-x="2271" 
 />
    <glyph glyph-name="trademark" unicode="&#x2122;" horiz-adv-x="1497" 
 />
    <glyph glyph-name="partialdiff" unicode="&#x2202;" 
d="M232 537q0 -41 5 -79q14 -122 61.5 -230t118.5 -165q64 -53 128 -53q6 0 13 1q70 5 127.5 70.5t80.5 179.5q16 73 16 149q0 42 -5 85q-14 122 -62.5 231.5t-119.5 165.5q-65 50 -128 50h-11q-68 -5 -126 -69.5t-82 -178.5q-16 -84 -16 -157zM937 477q0 -132 -56.5 -251
t-159 -185t-214.5 -66t-214.5 66t-159 185t-56.5 251q0 131 58 251t161 185t211 65q109 0 212 -65q29 -18 54 -41q-84 235 -233.5 377t-326.5 155v55q306 0 515 -285t209 -697z" />
    <glyph glyph-name="Delta" unicode="&#x2206;" horiz-adv-x="1081" 
d="M514 1195l-406 -1072h801zM547 1434l526 -1434h-1067z" />
    <glyph glyph-name="product" unicode="&#x220f;" horiz-adv-x="1515" 
d="M511 1384q-102 0 -102 -235v-1281q0 -235 102 -235h97v-51h-560v51h96q103 0 103 235v1281q0 235 -103 235h-96v50h1419v-50h-97q-102 0 -102 -235v-1281q0 -235 102 -235h97v-50h-560v50h96q103 0 103 235v1281q0 235 -103 235h-492z" />
    <glyph glyph-name="summation" unicode="&#x2211;" horiz-adv-x="1206" 
d="M1059 548l-788 -914h635q130 0 189 182h49l-103 -232h-921v50q62 0 106 53l663 781l-663 859q-44 57 -106 57v50h921l103 -232h-49q-59 182 -189 182h-485z" />
    <glyph glyph-name="minus" unicode="&#x2212;" 
d="M87 647v140h839l1 -1v-139h-840z" />
    <glyph glyph-name="radical" unicode="&#x221a;" 
d="M181 0l-164 359l74 35l85 -185l728 1470h150v-60h-72z" />
    <glyph glyph-name="infinity" unicode="&#x221e;" 
d="M439 755q-15 103 -74 133q-46 22 -84 22q-12 0 -23 -2q-49 -10 -92.5 -44.5t-65.5 -84.5q-20 -46 -20 -90v-8q2 -48 27.5 -89t71.5 -58q29 -11 61 -11q16 0 33 3q47 10 90.5 43.5t75.5 185.5zM466 687q12 -96 94 -153q69 -48 123 -48q11 0 21 2q62 12 117.5 52t84.5 101
q26 54 26 108v11q-2 60 -35.5 108.5t-91.5 68.5q-37 13 -76 13q-22 0 -44 -4q-67 -9 -127 -62t-92 -197zM450 827q9 35 21 69q34 88 95 137t128 49t128 -48t95 -135t34 -182t-34 -182t-95 -135t-128 -48t-128 49t-95 136q-12 35 -21 70q-5 -21 -12 -41q-27 -73 -74 -113
t-99 -40t-100 41t-73.5 113.5t-25.5 149.5q0 76 25.5 149t73.5 114t100 41t99 -40t74 -112q7 -21 12 -42z" />
    <glyph glyph-name="integral" unicode="&#x222b;" horiz-adv-x="665" 
d="M-12 -281q-60 0 -60 29v159h36q1 -43 34.5 -64.5t63.5 -21.5h1q82 0 115 162q32 162 40 316l70 734l8 62q27 238 135 429.5t234 191.5q60 0 60 -29v-159h-36q-1 43 -35 64.5t-63 21.5q-71 0 -116 -155.5t-49 -363.5l-73 -767q-20 -231 -130.5 -420t-234.5 -189z" />
    <glyph glyph-name="approxequal" unicode="&#x2248;" 
d="M923 1053v-156q-63 -72 -122 -97.5t-116 -25.5q-60 0 -177.5 48.5t-176.5 48.5q-51 0 -107.5 -28t-129.5 -112v156q64 73 123 99t114 26q64 0 181.5 -49.5t172.5 -49.5q52 0 108.5 28t129.5 112zM923 705v-156q-63 -72 -122 -97.5t-116 -25.5q-60 0 -177.5 48.5
t-176.5 48.5q-51 0 -107.5 -28t-129.5 -112v156q64 73 123 99t114 26q64 0 181.5 -49.5t172.5 -49.5q52 0 108.5 28t129.5 112z" />
    <glyph glyph-name="lessequal" unicode="&#x2264;" 
d="M927 1074l-625 -359l625 -355v-167l-840 481v83l840 484v-167zM87 1v140h839l1 -1v-139h-840z" />
    <glyph glyph-name="greaterequal" unicode="&#x2265;" 
d="M87 1241l840 -484v-83l-840 -481v167l625 355l-625 359v167zM87 2v140h839l1 -1v-139h-840z" />
    <glyph glyph-name="uniF001" unicode="&#xf001;" horiz-adv-x="1073" 
 />
    <glyph glyph-name="uniF001" unicode="&#xfb01;" horiz-adv-x="1073" 
 />
    <glyph glyph-name="uniF002" unicode="&#xf002;" horiz-adv-x="1081" 
 />
    <glyph glyph-name="uniF002" unicode="&#xfb02;" horiz-adv-x="1081" 
 />
    </font>
</defs>
</svg>
